<svg width="824" height="900" viewBox="0 0 824 900" fill="none" xmlns="http://www.w3.org/2000/svg">
<path d="M326.298 120.166C322.682 120.166 319.656 119.917 317.034 119.514C317.779 119.297 318.508 119.095 319.253 118.878C321.316 119.126 323.629 119.266 326.298 119.266C336.694 119.266 341.784 117.171 347.168 114.952C352.553 112.733 358.123 110.452 369.156 110.452C380.189 110.452 385.744 112.733 391.144 114.952C396.529 117.171 401.618 119.25 412.015 119.25C422.411 119.25 427.501 117.155 432.885 114.952C438.27 112.733 443.841 110.452 454.873 110.452C465.906 110.452 471.461 112.733 476.861 114.952C482.246 117.171 487.335 119.25 497.732 119.25C500.385 119.25 502.697 119.11 504.746 118.878C505.491 119.079 506.235 119.297 506.98 119.514C504.358 119.917 501.348 120.166 497.732 120.166C486.699 120.166 481.144 117.884 475.744 115.666C470.36 113.447 465.27 111.352 454.873 111.352C444.477 111.352 439.387 113.447 434.003 115.666C428.618 117.884 423.048 120.166 412.015 120.166C400.982 120.166 395.427 117.884 390.027 115.666C384.642 113.447 379.553 111.352 369.156 111.352C358.76 111.352 353.67 113.447 348.285 115.666C342.901 117.884 337.33 120.166 326.298 120.166ZM326.298 137.172C337.47 137.172 343.103 134.86 348.549 132.626C353.872 130.438 358.899 128.374 369.156 128.374C379.413 128.374 384.441 130.438 389.763 132.626C395.21 134.86 400.842 137.172 412.015 137.172C423.187 137.172 428.82 134.86 434.266 132.626C439.589 130.438 444.616 128.374 454.873 128.374C465.13 128.374 470.158 130.438 475.48 132.626C480.927 134.86 486.56 137.172 497.732 137.172C508.904 137.172 514.537 134.86 519.984 132.626C524.158 130.903 528.177 129.259 534.679 128.638C533.716 128.281 532.754 127.94 531.792 127.583C526.004 128.405 522.11 130.003 518.323 131.555C513.001 133.743 507.973 135.807 497.716 135.807C487.46 135.807 482.432 133.743 477.11 131.555C471.663 129.321 466.03 127.009 454.858 127.009C443.685 127.009 438.053 129.321 432.606 131.555C427.284 133.743 422.256 135.807 411.999 135.807C401.742 135.807 396.715 133.743 391.392 131.555C385.946 129.321 380.313 127.009 369.141 127.009C357.968 127.009 352.335 129.321 346.889 131.555C341.566 133.743 336.539 135.807 326.282 135.807C316.025 135.807 310.998 133.743 305.675 131.555C301.873 129.988 297.994 128.405 292.191 127.567C291.229 127.924 290.266 128.266 289.32 128.622C295.822 129.243 299.841 130.888 304.03 132.61C309.492 134.86 315.125 137.172 326.298 137.172ZM263.111 149.571C268.372 147.414 273.337 145.366 283.439 145.366C293.541 145.366 298.506 147.414 303.766 149.571C309.275 151.836 314.97 154.179 326.298 154.179C337.625 154.179 343.32 151.836 348.829 149.571C354.089 147.414 359.07 145.366 369.156 145.366C379.242 145.366 384.223 147.414 389.484 149.571C394.992 151.836 400.672 154.179 412.015 154.179C423.342 154.179 429.037 151.836 434.546 149.571C439.806 147.414 444.787 145.366 454.873 145.366C464.975 145.366 469.941 147.414 475.201 149.571C480.71 151.836 486.404 154.179 497.732 154.179C509.06 154.179 514.754 151.836 520.263 149.571C525.523 147.414 530.489 145.366 540.591 145.366C550.692 145.366 555.658 147.414 560.918 149.571C566.427 151.836 572.122 154.179 583.434 154.179C584.985 154.179 586.429 154.133 587.779 154.055C586.816 153.481 585.839 152.922 584.861 152.364C584.396 152.379 583.93 152.379 583.434 152.379C573.332 152.379 568.366 150.331 563.106 148.174C557.598 145.909 551.918 143.566 540.591 143.566C529.263 143.566 523.568 145.909 518.075 148.174C512.815 150.331 507.849 152.379 497.748 152.379C487.646 152.379 482.68 150.331 477.42 148.174C471.911 145.909 466.216 143.566 454.889 143.566C443.561 143.566 437.866 145.909 432.358 148.174C427.098 150.331 422.132 152.379 412.03 152.379C401.929 152.379 396.963 150.331 391.703 148.174C386.194 145.909 380.515 143.566 369.172 143.566C357.844 143.566 352.149 145.909 346.641 148.174C341.38 150.331 336.399 152.379 326.313 152.379C316.227 152.379 311.246 150.331 305.985 148.174C300.477 145.909 294.782 143.566 283.454 143.566C272.127 143.566 266.432 145.909 260.923 148.174C255.663 150.331 250.698 152.379 240.596 152.379C240.084 152.379 239.603 152.364 239.106 152.364C238.129 152.922 237.151 153.481 236.189 154.055C237.554 154.133 239.013 154.195 240.58 154.195C251.908 154.179 257.603 151.836 263.111 149.571ZM240.565 171.186C252.048 171.186 257.804 168.828 263.36 166.531C268.558 164.39 273.477 162.372 283.423 162.372C293.37 162.372 298.289 164.39 303.487 166.531C309.042 168.812 314.799 171.186 326.282 171.186C337.765 171.186 343.522 168.828 349.077 166.531C354.275 164.39 359.194 162.372 369.141 162.372C379.087 162.372 384.006 164.39 389.204 166.531C394.76 168.812 400.516 171.186 411.999 171.186C423.482 171.186 429.239 168.828 434.794 166.531C439.992 164.39 444.911 162.372 454.858 162.372C464.804 162.372 469.723 164.39 474.922 166.531C480.477 168.812 486.234 171.186 497.716 171.186C509.199 171.186 514.956 168.828 520.511 166.531C525.71 164.39 530.629 162.372 540.575 162.372C550.522 162.372 555.441 164.39 560.639 166.531C566.194 168.812 571.951 171.186 583.434 171.186C594.917 171.186 600.673 168.828 606.229 166.531C606.492 166.422 606.756 166.314 607.02 166.205C606.135 165.6 605.251 165.01 604.366 164.421C604.072 164.545 603.792 164.653 603.513 164.778C598.315 166.919 593.396 168.936 583.449 168.936C573.503 168.936 568.584 166.919 563.385 164.778C557.83 162.497 552.073 160.122 540.591 160.122C529.108 160.122 523.351 162.481 517.796 164.778C512.598 166.919 507.679 168.936 497.732 168.936C487.785 168.936 482.866 166.919 477.668 164.778C472.113 162.497 466.356 160.122 454.873 160.122C443.391 160.122 437.634 162.481 432.079 164.778C426.88 166.919 421.961 168.936 412.015 168.936C402.068 168.936 397.149 166.919 391.951 164.778C386.396 162.497 380.639 160.122 369.156 160.122C357.673 160.122 351.916 162.481 346.361 164.778C341.163 166.919 336.244 168.936 326.298 168.936C316.351 168.936 311.432 166.919 306.234 164.778C300.679 162.497 294.922 160.122 283.439 160.122C271.956 160.122 266.199 162.481 260.644 164.778C255.446 166.919 250.527 168.936 240.58 168.936C230.634 168.936 225.715 166.919 220.516 164.778C220.222 164.653 219.942 164.545 219.648 164.421C218.763 165.01 217.863 165.6 216.994 166.205C217.258 166.314 217.537 166.422 217.801 166.531C223.341 168.828 229.098 171.186 240.565 171.186ZM240.565 188.193C252.203 188.193 258.27 185.695 263.623 183.491C268.76 181.381 273.616 179.379 283.423 179.379C293.23 179.379 298.072 181.381 303.223 183.491C308.577 185.695 314.66 188.193 326.282 188.193C337.904 188.193 343.987 185.695 349.341 183.491C354.477 181.381 359.334 179.379 369.141 179.379C378.948 179.379 383.789 181.381 388.941 183.491C394.294 185.695 400.377 188.193 411.999 188.193C423.637 188.193 429.704 185.695 435.058 183.491C440.194 181.381 445.051 179.379 454.858 179.379C464.665 179.379 469.506 181.381 474.658 183.491C480.011 185.695 486.094 188.193 497.716 188.193C509.339 188.193 515.422 185.695 520.775 183.491C525.911 181.381 530.768 179.379 540.575 179.379C550.382 179.379 555.223 181.381 560.375 183.491C565.729 185.695 571.811 188.193 583.434 188.193C595.056 188.193 601.139 185.695 606.492 183.491C611.427 181.459 616.113 179.55 625.144 179.395C624.042 178.541 622.925 177.688 621.808 176.834C613.01 177.378 607.842 179.488 603.218 181.397C598.082 183.507 593.225 185.509 583.418 185.509C573.611 185.509 568.77 183.507 563.618 181.397C558.265 179.193 552.182 176.695 540.56 176.695C528.922 176.695 522.854 179.193 517.501 181.397C512.365 183.507 507.508 185.509 497.701 185.509C487.894 185.509 483.053 183.507 477.901 181.397C472.548 179.193 466.465 176.695 454.842 176.695C443.22 176.695 437.137 179.193 431.784 181.397C426.648 183.507 421.791 185.509 411.984 185.509C402.177 185.509 397.335 183.507 392.184 181.397C386.83 179.193 380.747 176.695 369.125 176.695C357.503 176.695 351.42 179.193 346.066 181.397C340.93 183.507 336.073 185.509 326.266 185.509C316.46 185.509 311.618 183.507 306.466 181.397C301.113 179.193 295.03 176.695 283.408 176.695C271.77 176.695 265.703 179.193 260.349 181.397C255.213 183.507 250.356 185.509 240.549 185.509C230.742 185.509 225.901 183.507 220.749 181.397C216.125 179.488 210.958 177.378 202.144 176.834C201.027 177.688 199.91 178.541 198.808 179.395C207.854 179.55 212.541 181.459 217.491 183.491C222.86 185.695 228.942 188.193 240.565 188.193ZM197.722 196.386C207.373 196.386 211.951 198.264 217.258 200.452C222.673 202.686 228.803 205.2 240.58 205.2C252.358 205.2 258.503 202.671 263.903 200.452C269.21 198.264 273.787 196.386 283.439 196.386C293.091 196.386 297.668 198.264 302.975 200.452C308.391 202.671 314.52 205.2 326.298 205.2C338.075 205.2 344.22 202.671 349.62 200.452C354.927 198.264 359.504 196.386 369.156 196.386C378.808 196.386 383.385 198.264 388.692 200.452C394.108 202.671 400.237 205.2 412.015 205.2C423.792 205.2 429.937 202.671 435.337 200.452C440.644 198.264 445.222 196.386 454.873 196.386C464.525 196.386 469.103 198.264 474.41 200.452C479.825 202.686 485.954 205.2 497.732 205.2C509.51 205.2 515.654 202.671 521.054 200.452C526.361 198.279 530.939 196.386 540.575 196.386C550.211 196.386 554.804 198.264 560.096 200.452C565.511 202.671 571.641 205.2 583.418 205.2C595.196 205.2 601.341 202.671 606.741 200.452C612.047 198.264 616.625 196.386 626.261 196.386C635.913 196.386 640.491 198.264 645.798 200.452C647.799 201.274 649.894 202.128 652.33 202.888C650.003 200.653 647.644 198.466 645.254 196.293C640.708 194.648 635.06 193.252 626.261 193.252C614.484 193.252 608.339 195.781 602.939 198C597.632 200.188 593.054 202.066 583.418 202.066C573.766 202.066 569.189 200.188 563.898 198C558.482 195.781 552.353 193.252 540.575 193.252C528.797 193.252 522.653 195.781 517.253 198C511.946 200.188 507.368 202.066 497.716 202.066C488.065 202.066 483.487 200.188 478.18 198C472.765 195.781 466.635 193.252 454.858 193.252C443.08 193.252 436.935 195.781 431.535 198C426.229 200.188 421.651 202.066 411.999 202.066C402.348 202.066 397.77 200.188 392.463 198C387.048 195.781 380.918 193.252 369.141 193.252C357.363 193.252 351.218 195.781 345.818 198C340.511 200.188 335.934 202.066 326.282 202.066C316.63 202.066 312.053 200.188 306.746 198C301.33 195.781 295.201 193.252 283.423 193.252C271.646 193.252 265.501 195.781 260.101 198C254.794 200.188 250.216 202.066 240.565 202.066C230.913 202.066 226.335 200.188 221.029 198C215.613 195.781 209.484 193.252 197.706 193.252C188.908 193.252 183.26 194.664 178.698 196.309C176.308 198.481 173.949 200.669 171.622 202.903C174.073 202.143 176.184 201.274 178.185 200.452C183.492 198.264 188.07 196.386 197.722 196.386ZM178.465 217.412C183.71 215.255 188.225 213.393 197.722 213.393C207.218 213.393 211.749 215.255 216.979 217.412C222.441 219.662 228.648 222.207 240.58 222.207C252.513 222.207 258.704 219.662 264.182 217.412C269.427 215.255 273.942 213.393 283.439 213.393C292.935 213.393 297.466 215.255 302.696 217.412C308.158 219.662 314.365 222.207 326.298 222.207C338.23 222.207 344.422 219.662 349.899 217.412C355.144 215.255 359.66 213.393 369.156 213.393C378.653 213.393 383.168 215.255 388.413 217.412C393.875 219.662 400.082 222.207 412.015 222.207C423.948 222.207 430.139 219.662 435.616 217.412C440.861 215.255 445.377 213.393 454.873 213.393C464.37 213.393 468.901 215.255 474.13 217.412C479.592 219.662 485.799 222.207 497.732 222.207C509.665 222.207 515.856 219.662 521.334 217.412C526.579 215.255 531.094 213.393 540.591 213.393C550.087 213.393 554.603 215.255 559.848 217.412C565.31 219.662 571.516 222.207 583.449 222.207C595.382 222.207 601.573 219.662 607.051 217.412C612.296 215.255 616.811 213.393 626.308 213.393C635.804 213.393 640.32 215.255 645.565 217.412C651.027 219.662 657.234 222.207 669.167 222.207C669.803 222.207 670.408 222.191 671.013 222.176C669.942 220.981 668.856 219.802 667.77 218.607C659.22 218.436 654.891 216.652 649.91 214.603C644.448 212.353 638.241 209.809 626.308 209.809C614.375 209.809 608.184 212.353 602.706 214.603C597.461 216.76 592.946 218.622 583.449 218.622C573.953 218.622 569.437 216.76 564.192 214.603C558.73 212.353 552.523 209.809 540.591 209.809C528.658 209.809 522.466 212.353 516.989 214.603C511.744 216.76 507.229 218.622 497.732 218.622C488.235 218.622 483.72 216.76 478.475 214.603C473.013 212.353 466.806 209.809 454.873 209.809C442.941 209.809 436.749 212.353 431.272 214.603C426.027 216.76 421.511 218.622 412.015 218.622C402.518 218.622 398.003 216.76 392.758 214.603C387.296 212.353 381.089 209.809 369.156 209.809C357.223 209.809 351.032 212.353 345.554 214.603C340.31 216.76 335.794 218.622 326.298 218.622C316.801 218.622 312.27 216.76 307.041 214.603C301.579 212.353 295.372 209.809 283.439 209.809C271.506 209.809 265.315 212.353 259.837 214.603C254.592 216.76 250.077 218.622 240.58 218.622C231.084 218.622 226.568 216.76 221.323 214.603C215.861 212.353 209.654 209.809 197.722 209.809C185.789 209.809 179.598 212.353 174.12 214.603C169.139 216.652 164.794 218.436 156.198 218.607C155.111 219.786 154.025 220.965 152.954 222.176C153.575 222.191 154.196 222.207 154.832 222.207C166.796 222.207 172.987 219.662 178.465 217.412ZM178.729 234.372C183.911 232.247 188.38 230.4 197.722 230.4C207.063 230.4 211.532 232.231 216.715 234.372C222.239 236.638 228.508 239.214 240.58 239.214C252.653 239.214 258.922 236.638 264.446 234.372C269.629 232.247 274.098 230.4 283.439 230.4C292.78 230.4 297.249 232.231 302.432 234.372C307.956 236.638 314.21 239.214 326.298 239.214C338.385 239.214 344.639 236.638 350.163 234.372C355.346 232.247 359.815 230.4 369.156 230.4C378.498 230.4 382.966 232.231 388.149 234.372C393.673 236.638 399.927 239.214 412.015 239.214C424.103 239.214 430.356 236.638 435.88 234.372C441.063 232.247 445.516 230.4 454.873 230.4C464.215 230.4 468.684 232.231 473.866 234.372C479.391 236.638 485.66 239.214 497.732 239.214C509.804 239.214 516.073 236.638 521.598 234.372C526.78 232.247 531.234 230.4 540.591 230.4C549.932 230.4 554.401 232.231 559.584 234.372C565.108 236.638 571.361 239.214 583.449 239.214C595.537 239.214 601.791 236.638 607.315 234.372C612.497 232.247 616.951 230.4 626.308 230.4C635.649 230.4 640.118 232.231 645.301 234.372C650.825 236.638 657.094 239.214 669.167 239.214C675.451 239.214 680.137 238.516 683.985 237.538C682.992 236.297 681.984 235.055 680.975 233.829C677.887 234.667 674.241 235.21 669.167 235.21C659.825 235.21 655.356 233.379 650.173 231.238C644.649 228.972 638.38 226.397 626.308 226.397C614.235 226.397 607.966 228.972 602.442 231.238C597.26 233.364 592.806 235.21 583.449 235.21C574.108 235.21 569.639 233.379 564.456 231.238C558.932 228.972 552.679 226.397 540.591 226.397C528.503 226.397 522.249 228.972 516.725 231.238C511.542 233.364 507.089 235.21 497.732 235.21C488.375 235.21 483.922 233.379 478.739 231.238C473.215 228.972 466.946 226.397 454.873 226.397C442.801 226.397 436.532 228.972 431.008 231.238C425.825 233.364 421.372 235.21 412.015 235.21C402.673 235.21 398.204 233.379 393.022 231.238C387.497 228.972 381.244 226.397 369.156 226.397C357.068 226.397 350.815 228.972 345.291 231.238C340.108 233.364 335.639 235.21 326.298 235.21C316.956 235.21 312.487 233.379 307.304 231.238C301.78 228.972 295.511 226.397 283.439 226.397C271.366 226.397 265.098 228.972 259.573 231.238C254.391 233.364 249.937 235.21 240.58 235.21C231.239 235.21 226.77 233.379 221.587 231.238C216.063 228.972 209.794 226.397 197.722 226.397C185.634 226.397 179.38 228.972 173.856 231.238C168.673 233.364 164.204 235.21 154.863 235.21C149.773 235.21 146.127 234.667 143.023 233.814C142.015 235.04 141.006 236.281 140.013 237.522C143.861 238.516 148.579 239.214 154.863 239.214C166.935 239.214 173.204 236.638 178.729 234.372ZM154.848 256.221C167.075 256.221 173.406 253.614 178.992 251.317C184.113 249.222 188.52 247.391 197.706 247.391C206.908 247.391 211.315 249.207 216.42 251.317C222.006 253.614 228.322 256.221 240.565 256.221C252.808 256.221 259.123 253.614 264.71 251.317C269.815 249.222 274.237 247.391 283.423 247.391C292.625 247.391 297.032 249.207 302.137 251.317C307.723 253.614 314.039 256.221 326.282 256.221C338.525 256.221 344.841 253.614 350.427 251.317C355.532 249.222 359.954 247.391 369.141 247.391C378.342 247.391 382.749 249.207 387.854 251.317C393.441 253.614 399.756 256.221 411.999 256.221C424.227 256.221 430.558 253.614 436.144 251.317C441.265 249.222 445.672 247.391 454.858 247.391C464.06 247.391 468.466 249.207 473.572 251.317C479.158 253.614 485.473 256.221 497.716 256.221C509.96 256.221 516.275 253.614 521.861 251.317C526.966 249.222 531.389 247.407 540.575 247.407C549.777 247.407 554.184 249.222 559.289 251.317C564.86 253.614 571.191 256.221 583.434 256.221C595.677 256.221 601.992 253.614 607.579 251.317C612.684 249.222 617.106 247.407 626.292 247.407C635.494 247.407 639.901 249.222 645.006 251.317C650.592 253.614 656.908 256.221 669.151 256.221C681.394 256.221 687.71 253.614 693.296 251.317C693.591 251.193 693.885 251.084 694.165 250.96C693.11 249.502 692.039 248.043 690.953 246.6C689.882 247.019 688.858 247.422 687.865 247.841C682.76 249.936 678.337 251.767 669.151 251.767C659.949 251.767 655.542 249.952 650.437 247.841C644.851 245.545 638.535 242.938 626.292 242.938C614.065 242.938 607.734 245.545 602.148 247.841C597.042 249.936 592.62 251.752 583.434 251.752C574.232 251.752 569.825 249.936 564.72 247.841C559.149 245.545 552.818 242.938 540.575 242.938C528.347 242.938 522.016 245.545 516.43 247.841C511.325 249.936 506.903 251.767 497.716 251.767C488.515 251.767 484.108 249.952 479.003 247.841C473.416 245.545 467.101 242.938 454.858 242.938C442.615 242.938 436.299 245.545 430.713 247.841C425.608 249.936 421.185 251.767 411.999 251.767C402.798 251.767 398.391 249.952 393.285 247.841C387.699 245.545 381.384 242.938 369.141 242.938C356.898 242.938 350.582 245.545 344.996 247.841C339.875 249.936 335.468 251.767 326.282 251.767C317.08 251.767 312.673 249.952 307.568 247.841C301.982 245.545 295.666 242.938 283.423 242.938C271.196 242.938 264.865 245.545 259.279 247.841C254.173 249.936 249.751 251.767 240.565 251.767C231.363 251.767 226.956 249.952 221.851 247.841C216.265 245.545 209.949 242.938 197.706 242.938C185.463 242.938 179.148 245.545 173.561 247.841C168.456 249.936 164.034 251.767 154.848 251.767C145.646 251.767 141.239 249.952 136.134 247.841C135.141 247.438 134.116 247.003 133.03 246.6C131.96 248.043 130.873 249.502 129.818 250.96C130.113 251.084 130.408 251.209 130.703 251.333C136.289 253.614 142.62 256.221 154.848 256.221ZM454.873 264.414C463.92 264.414 468.28 266.214 473.323 268.278C478.956 270.59 485.349 273.212 497.732 273.212C510.115 273.212 516.508 270.59 522.141 268.278C527.184 266.198 531.544 264.414 540.591 264.414C549.637 264.414 553.998 266.214 559.041 268.278C564.673 270.59 571.066 273.212 583.449 273.212C595.832 273.212 602.225 270.59 607.858 268.278C612.901 266.198 617.261 264.414 626.308 264.414C635.354 264.414 639.715 266.214 644.758 268.278C650.391 270.59 656.784 273.212 669.167 273.212C681.549 273.212 687.942 270.59 693.575 268.278C696.803 266.959 699.751 265.748 703.801 265.034C702.792 263.483 701.768 261.931 700.729 260.395C695.142 261.357 691.216 262.971 687.601 264.445C682.558 266.524 678.198 268.309 669.151 268.309C660.104 268.309 655.744 266.509 650.701 264.445C645.068 262.133 638.675 259.51 626.292 259.51C613.91 259.51 607.516 262.133 601.884 264.445C596.841 266.524 592.48 268.309 583.434 268.309C574.387 268.309 570.027 266.509 564.984 264.445C559.351 262.133 552.958 259.51 540.575 259.51C528.192 259.51 521.799 262.133 516.166 264.445C511.123 266.524 506.763 268.309 497.716 268.309C488.67 268.309 484.31 266.509 479.266 264.445C473.634 262.133 467.241 259.51 454.858 259.51C442.475 259.51 436.082 262.133 430.449 264.445C425.406 266.524 421.046 268.309 411.999 268.309C402.953 268.309 398.592 266.509 393.549 264.445C387.916 262.133 381.523 259.51 369.141 259.51C356.758 259.51 350.365 262.133 344.732 264.445C339.689 266.524 335.329 268.309 326.282 268.309C317.235 268.309 312.875 266.509 307.832 264.445C302.199 262.133 295.806 259.51 283.423 259.51C271.041 259.51 264.648 262.133 259.015 264.445C253.972 266.524 249.611 268.309 240.565 268.309C231.518 268.309 227.158 266.509 222.115 264.445C216.482 262.133 210.089 259.51 197.706 259.51C185.323 259.51 178.93 262.133 173.298 264.445C168.254 266.524 163.894 268.309 154.848 268.309C145.801 268.309 141.441 266.509 136.398 264.445C132.782 262.955 128.872 261.357 123.27 260.395C122.23 261.931 121.222 263.483 120.198 265.034C124.263 265.733 127.211 266.943 130.439 268.278C136.072 270.59 142.465 273.212 154.848 273.212C167.23 273.212 173.623 270.59 179.256 268.278C184.299 266.198 188.66 264.414 197.706 264.414C206.753 264.414 211.113 266.214 216.156 268.278C221.789 270.59 228.182 273.212 240.565 273.212C252.948 273.212 259.341 270.59 264.973 268.278C270.016 266.198 274.377 264.414 283.423 264.414C292.47 264.414 296.83 266.214 301.873 268.278C307.506 270.59 313.899 273.212 326.282 273.212C338.665 273.212 345.058 270.59 350.691 268.278C355.734 266.198 360.094 264.414 369.141 264.414C378.187 264.414 382.547 266.214 387.591 268.278C393.223 270.59 399.616 273.212 411.999 273.212C424.382 273.212 430.775 270.59 436.408 268.278C441.466 266.214 445.827 264.414 454.873 264.414ZM369.156 276.083C356.618 276.083 350.163 278.736 344.484 281.079C339.285 283.221 335.189 284.897 326.298 284.897C317.406 284.897 313.31 283.205 308.111 281.079C302.416 278.736 295.977 276.083 283.423 276.083C270.885 276.083 264.43 278.736 258.751 281.079C253.553 283.221 249.456 284.897 240.565 284.897C231.673 284.897 227.577 283.205 222.379 281.079C216.684 278.736 210.244 276.083 197.691 276.083C185.153 276.083 178.698 278.736 173.003 281.079C167.804 283.221 163.708 284.897 154.816 284.897C145.925 284.897 141.829 283.205 136.63 281.079C131.153 278.829 124.946 276.284 113.292 276.098C112.237 277.867 111.182 279.652 110.158 281.452C110.748 281.436 111.337 281.421 111.973 281.421C120.865 281.421 124.961 283.112 130.16 285.238C135.854 287.581 142.294 290.234 154.848 290.234C167.385 290.234 173.841 287.581 179.535 285.238C184.734 283.097 188.83 281.421 197.722 281.421C206.613 281.421 210.71 283.112 215.908 285.238C221.603 287.581 228.042 290.234 240.58 290.234C253.118 290.234 259.573 287.581 265.253 285.238C270.451 283.097 274.548 281.421 283.439 281.421C292.33 281.421 296.427 283.112 301.625 285.238C307.32 287.581 313.76 290.234 326.298 290.234C327.648 290.234 328.92 290.203 330.13 290.141C333.622 289.645 337.098 289.179 340.604 288.76C344.779 287.783 347.991 286.479 350.985 285.253C356.184 283.112 360.28 281.436 369.172 281.436C377.598 281.436 381.725 282.957 386.566 284.928C392.634 284.664 398.685 284.493 404.753 284.415C400.392 283.764 397.366 282.522 393.844 281.079C388.134 278.721 381.679 276.083 369.156 276.083ZM558.777 285.238C564.472 287.581 570.911 290.234 583.449 290.234C595.987 290.234 602.442 287.581 608.122 285.238C613.32 283.097 617.416 281.421 626.308 281.421C635.199 281.421 639.296 283.112 644.494 285.238C650.189 287.581 656.629 290.234 669.167 290.234C681.704 290.234 688.16 287.581 693.839 285.238C699.037 283.097 703.134 281.421 712.025 281.421C712.661 281.421 713.251 281.436 713.841 281.452C712.816 279.652 711.761 277.867 710.706 276.098C699.037 276.284 692.83 278.814 687.353 281.079C682.154 283.221 678.058 284.897 669.167 284.897C660.275 284.897 656.179 283.205 650.98 281.079C645.285 278.736 638.846 276.083 626.308 276.083C613.77 276.083 607.315 278.736 601.635 281.079C596.437 283.221 592.341 284.897 583.449 284.897C574.558 284.897 570.461 283.205 565.263 281.079C559.568 278.736 553.129 276.083 540.591 276.083C528.053 276.083 521.598 278.736 515.918 281.079C510.72 283.221 506.623 284.897 497.732 284.897C488.841 284.897 484.744 283.205 479.546 281.079C473.851 278.736 467.411 276.083 454.873 276.083C442.335 276.083 435.88 278.736 430.185 281.079C426.663 282.522 423.637 283.764 419.277 284.415C425.344 284.493 431.411 284.664 437.479 284.928C442.304 282.941 446.432 281.436 454.873 281.436C463.765 281.436 467.861 283.128 473.06 285.253C476.054 286.495 479.282 287.798 483.487 288.776C486.948 289.21 490.392 289.66 493.837 290.141C495.079 290.203 496.366 290.234 497.732 290.234C510.27 290.234 516.725 287.581 522.404 285.238C527.603 283.097 531.699 281.421 540.591 281.421C549.482 281.421 553.579 283.112 558.777 285.238ZM626.308 298.428C635.044 298.428 639.094 300.088 644.215 302.198C649.956 304.557 656.473 307.241 669.167 307.241C681.86 307.241 688.361 304.557 694.118 302.198C699.239 300.088 703.289 298.428 712.025 298.428C717.099 298.428 720.591 298.986 723.632 299.871C722.499 297.59 721.351 295.324 720.172 293.059C717.766 292.795 715.082 292.64 712.025 292.64C699.332 292.64 692.83 295.324 687.073 297.683C681.953 299.793 677.903 301.453 669.167 301.453C660.43 301.453 656.38 299.793 651.26 297.683C645.518 295.324 639.001 292.64 626.308 292.64C613.615 292.64 607.113 295.324 601.372 297.683C596.251 299.793 592.201 301.453 583.465 301.453C574.729 301.453 570.679 299.793 565.558 297.683C559.816 295.324 553.299 292.64 540.622 292.64C532.785 292.64 527.308 293.664 522.901 294.998C528.379 296.053 533.841 297.217 539.287 298.443C539.722 298.428 540.156 298.428 540.622 298.428C549.358 298.428 553.408 300.088 558.529 302.198C564.27 304.557 570.787 307.241 583.465 307.241C596.158 307.241 602.66 304.557 608.401 302.198C613.522 300.088 617.572 298.428 626.308 298.428ZM258.503 297.683C253.382 299.793 249.332 301.453 240.596 301.453C231.86 301.453 227.81 299.793 222.689 297.683C216.948 295.324 210.43 292.64 197.737 292.64C185.044 292.64 178.542 295.324 172.785 297.683C167.665 299.793 163.615 301.453 154.879 301.453C146.142 301.453 142.092 299.793 136.956 297.683C131.215 295.324 124.698 292.64 112.004 292.64C108.948 292.64 106.248 292.795 103.827 293.074C102.648 295.324 101.484 297.605 100.351 299.886C103.392 299.002 106.899 298.428 111.989 298.428C120.725 298.428 124.775 300.088 129.911 302.198C135.653 304.557 142.17 307.241 154.863 307.241C167.556 307.241 174.058 304.557 179.815 302.198C184.935 300.088 188.985 298.428 197.737 298.428C206.473 298.428 210.523 300.088 215.644 302.198C221.385 304.557 227.903 307.241 240.596 307.241C253.289 307.241 259.791 304.557 265.548 302.198C270.668 300.088 274.718 298.428 283.454 298.428C283.904 298.428 284.323 298.428 284.742 298.443C290.204 297.217 295.666 296.069 301.16 294.998C296.768 293.664 291.291 292.64 283.454 292.64C270.761 292.64 264.244 295.324 258.503 297.683ZM197.706 309.197C184.873 309.197 177.999 312.021 172.491 314.286C167.432 316.365 163.429 318.01 154.848 318.01C146.251 318.01 142.263 316.365 137.204 314.286C131.696 312.021 124.822 309.197 111.989 309.197C104.634 309.197 99.2337 310.128 94.9355 311.338C93.5699 314.364 92.251 317.421 90.963 320.493C92.1579 320.043 93.2751 319.578 94.3458 319.143C99.4044 317.064 103.392 315.419 111.989 315.419C120.585 315.419 124.573 317.064 129.632 319.143C135.141 321.409 142.015 324.233 154.848 324.233C167.68 324.233 174.554 321.409 180.063 319.143C185.122 317.064 189.125 315.419 197.706 315.419C205.899 315.419 209.903 316.909 214.651 318.848C218.142 317.591 221.634 316.365 225.141 315.171C224.411 314.891 223.682 314.581 222.922 314.271C217.413 312.021 210.554 309.197 197.706 309.197ZM669.167 324.248C681.999 324.248 688.873 321.424 694.382 319.159C699.441 317.079 703.429 315.434 712.025 315.434C720.622 315.434 724.61 317.079 729.668 319.159C730.723 319.593 731.841 320.043 733.02 320.493C731.747 317.421 730.413 314.364 729.047 311.338C724.749 310.128 719.365 309.197 712.01 309.197C699.177 309.197 692.303 312.021 686.794 314.286C681.735 316.365 677.732 318.01 669.151 318.01C660.554 318.01 656.566 316.365 651.508 314.286C645.999 312.021 639.141 309.197 626.292 309.197C613.46 309.197 606.585 312.021 601.077 314.286C600.316 314.597 599.587 314.891 598.858 315.186C602.365 316.381 605.856 317.607 609.347 318.864C614.096 316.924 618.099 315.419 626.308 315.419C634.904 315.419 638.892 317.064 643.951 319.143C649.46 321.424 656.318 324.248 669.167 324.248ZM712.025 332.441C720.466 332.441 724.408 334.055 729.404 336.119C732.415 337.36 735.829 338.757 740.391 339.781C739.335 336.755 738.249 333.745 737.116 330.75C731.608 328.484 724.718 325.784 712.041 325.784C699.053 325.784 692.132 328.64 686.561 330.921C681.565 332.969 677.623 334.598 669.182 334.598C660.741 334.598 656.799 332.984 651.803 330.921C646.403 328.702 639.73 325.971 627.518 325.8C639.156 330.455 650.67 335.498 662.044 340.945C664.201 341.147 666.575 341.271 669.182 341.271C682.17 341.271 689.091 338.416 694.661 336.134C699.642 334.055 703.584 332.441 712.025 332.441ZM154.848 334.583C146.406 334.583 142.465 332.969 137.468 330.905C131.898 328.624 124.977 325.769 111.989 325.769C99.2958 325.769 92.3751 328.484 86.882 330.75C85.7493 333.745 84.663 336.755 83.6079 339.781C88.1699 338.757 91.5992 337.36 94.6096 336.119C99.6061 334.071 103.548 332.441 111.989 332.441C120.43 332.441 124.372 334.055 129.368 336.119C134.939 338.4 141.86 341.255 154.848 341.255C157.454 341.255 159.813 341.131 161.97 340.929C173.344 335.483 184.858 330.44 196.496 325.784C184.284 325.955 177.611 328.686 172.227 330.905C167.23 332.953 163.289 334.583 154.848 334.583ZM111.989 342.326C98.8458 342.326 91.863 345.197 86.2303 347.509C84.1665 348.362 82.3199 349.107 80.3182 349.712C79.4803 352.381 78.6734 355.066 77.8975 357.766C85.6717 356.85 90.6527 354.802 94.8734 353.064C99.9941 350.953 103.703 349.433 111.989 349.433C120.275 349.433 123.968 350.953 129.104 353.064C130.703 353.716 132.41 354.414 134.334 355.081C137.592 353.297 140.851 351.559 144.141 349.852C141.953 349.231 139.998 348.424 137.763 347.509C132.13 345.212 125.132 342.326 111.989 342.326ZM729.125 353.064C733.346 354.802 738.327 356.85 746.101 357.766C745.325 355.066 744.518 352.381 743.68 349.712C741.679 349.107 739.832 348.362 737.768 347.509C732.151 345.197 725.153 342.326 712.025 342.326C698.882 342.326 691.899 345.197 686.282 347.509C684.047 348.424 682.092 349.231 679.889 349.852C683.163 351.559 686.437 353.312 689.696 355.081C691.62 354.414 693.327 353.716 694.925 353.064C700.046 350.953 703.739 349.433 712.041 349.433C720.296 349.448 724.004 350.969 729.125 353.064ZM750.616 375.145C750.011 372.522 749.375 369.916 748.708 367.324C744.487 366.75 741.616 365.586 738.063 364.112C732.399 361.784 725.339 358.883 712.041 358.883C706.656 358.883 702.311 359.364 698.649 360.078C702.311 362.172 705.973 364.314 709.604 366.486C710.38 366.455 711.172 366.44 712.041 366.44C720.187 366.44 723.834 367.945 728.877 370.024C733.904 372.088 740.034 374.602 750.616 375.145ZM85.982 364.128C82.413 365.602 79.5424 366.765 75.2906 367.34C74.6234 369.931 73.9872 372.538 73.382 375.16C83.9958 374.617 90.1251 372.103 95.1682 370.04C100.196 367.96 103.858 366.455 111.989 366.455C112.842 366.455 113.634 366.471 114.394 366.502C118.025 364.314 121.687 362.172 125.365 360.093C121.718 359.379 117.373 358.898 112.004 358.898C98.7217 358.898 91.6613 361.8 85.982 364.128ZM752.572 384.222C746.148 383.959 742.78 382.578 738.311 380.747C735.022 379.397 731.282 377.86 726.146 376.79C733.687 381.662 741.135 386.752 748.491 392.028C750.229 392.167 752.106 392.245 754.108 392.26C753.627 389.576 753.115 386.891 752.572 384.222ZM71.4268 384.222C70.8837 386.891 70.3717 389.576 69.8906 392.26C71.9079 392.245 73.7699 392.167 75.5079 392.028C82.863 386.767 90.3113 381.678 97.8372 376.805C92.7165 377.876 88.9924 379.412 85.7027 380.747C81.2182 382.578 77.851 383.959 71.4268 384.222Z" fill="url(#paint0_linear)"/>
<path d="M105.922 620.503C105.364 620.503 104.836 620.209 104.557 619.696C86.2931 585.869 73.8328 549.512 67.5483 511.603C67.4086 510.765 67.9828 509.959 68.8207 509.819C69.6586 509.664 70.4655 510.253 70.6052 511.091C76.8431 548.659 89.1793 584.69 107.288 618.222C107.691 618.983 107.412 619.914 106.667 620.333C106.419 620.441 106.171 620.503 105.922 620.503Z" fill="#FFAC14"/>
<path d="M289.507 780.983C289.321 780.983 289.134 780.952 288.964 780.89C237.648 761.571 190.895 729.807 153.793 689.059C153.219 688.422 153.265 687.445 153.902 686.871C154.538 686.297 155.515 686.343 156.09 686.979C192.881 727.371 239.2 758.84 290.065 777.988C290.872 778.283 291.276 779.183 290.965 779.99C290.717 780.595 290.128 780.983 289.507 780.983Z" fill="#FFAC14"/>
<path d="M822.477 453.103C767.065 397.691 702.451 354.786 630.436 325.583C560.888 297.372 487.383 283.081 411.984 283.081C336.586 283.081 263.096 297.388 193.533 325.583C121.548 354.786 56.9342 397.691 1.52218 453.103L0.637695 453.988L1.52218 454.872C71.7532 525.103 159.084 576.357 254.096 603.124C256.533 603.807 258.984 604.474 261.436 605.126L262.957 604.241C167.51 578.933 77.2463 528.843 2.39115 453.988C228.602 227.778 595.367 227.778 821.577 453.988C793.926 481.64 764.164 505.924 732.803 526.826C672.395 567.093 606.074 594.807 537.55 609.952C453.353 628.557 365.805 628.2 281.733 608.897C281.903 609.347 282.043 609.812 282.152 610.278C324.762 619.991 368.396 624.879 412.062 624.879C454.269 624.879 496.507 620.317 537.829 611.193C608.014 595.676 673.853 567.652 733.502 527.881C765.281 506.7 795.214 482.136 822.462 454.888L823.346 454.003L822.477 453.103Z" fill="white"/>
<path d="M254.779 600.719C160.574 574.184 73.9565 523.474 4.19095 454.003C59.1685 399.259 123.193 356.834 194.51 327.926C263.763 299.84 336.943 285.61 412.015 285.61C487.088 285.61 560.267 299.855 629.52 327.941C700.838 356.866 764.862 399.274 819.839 454.019C792.948 480.802 763.45 504.947 732.151 525.802C672.751 565.386 607.206 593.302 537.332 608.741C453.074 627.362 365.075 626.866 281.143 607.469C281.391 607.934 281.608 608.415 281.779 608.912C365.851 628.231 453.4 628.588 537.596 609.967C606.12 594.822 672.425 567.109 732.85 526.841C764.194 505.94 793.956 481.671 821.624 454.003C595.413 227.793 228.648 227.793 2.4375 454.003C77.2927 528.859 167.541 578.948 263.003 604.257L264.555 603.357C261.265 602.503 258.022 601.619 254.779 600.719Z" fill="white"/>
<path d="M280.925 607.081C277.775 601.619 270.762 599.741 265.315 602.891L139.082 675.776C138.477 676.117 138.275 676.893 138.617 677.498C141.503 682.495 146.158 686.064 151.729 687.569C153.591 688.066 155.484 688.314 157.362 688.314C161.101 688.314 164.794 687.336 168.131 685.412L276.736 622.707C282.198 619.541 284.075 612.543 280.925 607.081ZM279.637 615.103C279.017 617.4 277.543 619.324 275.479 620.519L166.874 683.224C162.451 685.769 157.315 686.452 152.381 685.133C147.865 683.922 144.017 681.16 141.456 677.312L266.556 605.079C270.808 602.628 276.286 604.086 278.737 608.338C279.932 610.402 280.258 612.807 279.637 615.103Z" fill="white"/>
<path d="M412 620.581C320.138 620.581 245.407 545.85 245.407 453.988C245.407 362.126 320.138 287.395 412 287.395C503.862 287.395 578.593 362.126 578.593 453.988C578.593 545.85 503.862 620.581 412 620.581ZM412 289.909C321.535 289.909 247.921 363.507 247.921 453.988C247.921 544.453 321.519 618.067 412 618.067C502.481 618.067 576.08 544.469 576.08 453.988C576.08 363.522 502.466 289.909 412 289.909Z" fill="white"/>
<path d="M180.001 577.443C179.396 577.443 178.853 576.993 178.76 576.372C178.713 576.062 173.608 544.671 137.049 536.633C136.708 536.555 136.429 536.353 136.242 536.059C136.072 535.764 136.01 535.422 136.103 535.081C136.351 534.119 141.999 511.278 117.234 501.083C92.2821 490.81 75.3373 507.166 75.1666 507.336C74.7632 507.74 74.127 507.817 73.6459 507.522C73.1494 507.228 72.9166 506.638 73.0873 506.095C73.1028 506.017 75.1511 498.957 74.3442 490.981C73.2735 480.507 67.9976 473.431 58.6563 469.94C58.0356 469.707 57.7097 469.04 57.8959 468.403C58.0045 468.047 68.277 432.667 64.258 399.476C64.1804 398.793 64.6614 398.157 65.3597 398.079C66.058 398.002 66.6787 398.483 66.7563 399.181C70.4339 429.564 62.3339 461.7 60.6114 468.015C78.8907 475.588 77.6649 495.093 76.2839 503.193C78.3942 501.657 81.6063 499.64 85.7959 498.01C92.9494 495.217 104.386 493.091 118.196 498.771C141.58 508.407 139.703 529.122 138.803 534.46C158.029 539.038 168.503 549.869 173.934 558.248C179.955 567.528 181.211 575.674 181.258 576.016C181.367 576.698 180.886 577.335 180.203 577.443C180.125 577.428 180.063 577.443 180.001 577.443Z" fill="#FFAC14"/>
<path d="M749.81 536.4C749.64 536.353 749.484 536.369 749.329 536.385L691.543 497.622L697.859 482.897H668.64L651.198 534.041H612.56L605.034 511.821H574.512L585.219 535.19L413.816 800.053C413.21 800.053 412.605 800.069 412 800.069C411.147 800.069 410.448 800.767 410.448 801.621C410.448 802.474 411.147 803.172 412 803.172C491.572 803.172 566.536 777.103 628.76 727.774C689.138 679.919 732.524 612.621 750.959 538.278C751.145 537.44 750.648 536.602 749.81 536.4ZM747.731 538.324C745.388 547.65 742.657 556.867 739.538 565.96L680.79 522.698L690.534 499.981L747.731 538.324ZM633.167 633.802L633.307 633.476L643.859 608.85L675.11 678.709C670.393 684.233 665.505 689.617 660.446 694.847L633.167 633.802ZM645.209 605.7L655.853 580.872L710.707 628.697C700.822 645.548 689.51 661.578 676.926 676.583L645.209 605.7ZM656.893 578.436L667.802 552.972L725.588 600.393C721.429 609.269 716.883 617.974 711.979 626.478L656.893 578.436ZM668.841 550.552L679.765 525.057L738.669 568.428C735.131 578.483 731.143 588.352 726.705 598.019L668.841 550.552ZM670.424 485.395H694.026L643.812 602.566L633.059 627.672V595.024L670.424 485.395ZM631.802 590.912L618.69 552.197H644.991L631.802 590.912ZM650.329 536.555L645.86 549.683H617.852L613.414 536.555H650.329ZM578.422 514.334H603.234L630.545 595.04V628.06L629.241 625.19L578.422 514.334ZM611.583 592.712L616.936 604.397L552.85 770.338C535.843 777.941 518.262 784.117 500.231 788.834L611.583 592.712ZM496.848 789.688C483.069 793.133 469.041 795.74 454.812 797.478L600.984 569.56L610.295 589.888L496.848 789.688ZM618.395 607.593L625.067 622.148L630.436 633.864L587.329 752.493C577.181 758.498 566.769 763.945 556.124 768.833L618.395 607.593ZM586.46 537.89L599.728 566.845L451.584 797.85C440.117 799.138 428.526 799.867 416.826 800.022L586.46 537.89ZM626.821 725.338C615.214 734.54 603.172 742.919 590.728 750.46L631.91 637.153L658.569 696.786C648.607 706.934 638.009 716.478 626.821 725.338Z" fill="#FF3299"/>
<path d="M726.131 475.262L722.81 472.717C721.507 471.709 720.265 470.762 719.148 469.909L717.86 468.931C712.445 464.803 707.758 461.25 704.531 457.743C700.9 453.802 699.271 450.31 699.271 446.416C699.271 442.738 700.714 439.231 703.212 436.779C705.757 434.374 709.17 433.055 712.879 433.055C715.641 433.055 718.077 433.816 720.327 435.367C721.429 436.128 722.5 437.136 723.524 438.347L726.271 441.683L729.017 438.362C730.041 437.136 731.127 436.143 732.229 435.383C734.184 433.862 736.636 433.071 739.46 433.071C743.153 433.071 746.583 434.39 749.112 436.779C751.657 439.184 753.069 442.614 753.069 446.431C753.069 450.341 751.393 453.957 747.808 457.774C744.41 461.39 739.414 465.191 733.641 469.598L733.191 469.94C731.36 471.29 729.172 472.966 726.907 474.703L726.131 475.262ZM712.879 435.569C709.822 435.569 707.014 436.64 704.95 438.579C702.948 440.534 701.784 443.39 701.784 446.4C701.784 449.612 703.196 452.591 706.377 456.036C709.45 459.372 714.058 462.879 719.381 466.929L720.684 467.922C721.802 468.791 723.027 469.738 724.346 470.731L726.131 472.097C728.133 470.56 730.057 469.102 731.671 467.907L732.105 467.581C737.8 463.236 742.719 459.497 745.977 456.036C749.143 452.669 750.555 449.69 750.555 446.416C750.555 443.25 749.453 440.55 747.39 438.595C745.326 436.655 742.517 435.584 739.46 435.584C737.21 435.584 735.271 436.19 733.719 437.4C732.741 438.083 731.841 438.936 730.957 439.976L726.286 445.64L721.6 439.96C720.731 438.936 719.815 438.083 718.9 437.431C717.1 436.174 715.129 435.569 712.879 435.569Z" fill="#FF3299"/>
<path d="M421.776 49.7948C421.776 49.7948 401.945 52.3862 377.195 44.131C377.195 44.131 376.745 61.9138 365.929 72.7293C360.219 78.4397 370.91 100.598 370.91 100.598C370.91 100.598 346.688 119.483 305.614 103.484C249.395 81.5897 246.664 116.783 192.85 116.783C70.6825 116.783 82.0566 36.1862 82.0566 36.1862C108.824 93.3207 170.427 77.9741 170.427 77.9741C128.624 70.3397 128.143 22.3603 128.143 22.3603C128.143 22.3603 138.12 53.1465 176.743 53.1465C212.541 53.1465 211.641 44.131 211.641 44.131C182.593 38.1103 182.531 5.9431 182.531 5.9431C182.531 5.9431 189.7 28.9241 215.458 28.9241C242.986 28.9241 291.958 10.0552 319.036 5.07414C430.015 -15.331 426.695 40.0035 426.695 40.0035C439.077 52.3862 428.122 79.0138 428.122 79.0138C428.122 79.0138 423.808 56.3276 421.776 49.7948Z" fill="black"/>
<path d="M192.85 117.403C147.974 117.403 115.884 106.65 97.4653 85.4535C77.9136 62.9379 81.4049 36.3569 81.4515 36.0931C81.498 35.8138 81.6998 35.5966 81.9791 35.5655C82.2584 35.5345 82.5222 35.6741 82.6463 35.9224C96.348 65.1724 119.422 74.8862 136.367 77.881C149.991 80.2862 161.955 78.8741 167.324 77.9586C128.469 68.6017 127.553 22.8414 127.538 22.3759C127.538 22.0655 127.755 21.8017 128.065 21.7552C128.376 21.7086 128.67 21.8793 128.764 22.1741C128.795 22.2517 131.324 29.8707 138.477 37.381C145.072 44.3017 157.067 52.5414 176.774 52.5414C200.438 52.5414 207.731 48.5845 209.981 46.2104C210.601 45.5586 210.865 45 210.974 44.6431C196.093 41.3379 188.986 31.0966 185.65 23.0431C182.003 14.2293 181.941 6.3 181.941 5.97414C181.941 5.6638 182.174 5.4 182.469 5.35345C182.779 5.3069 183.074 5.49311 183.167 5.78794C183.245 6.02069 190.522 28.3345 215.489 28.3345C232.636 28.3345 258.643 20.8241 281.593 14.2138C295.589 10.1793 308.795 6.36207 318.958 4.50001C350.955 -1.38103 393.643 -4.37586 415.274 14.7569C427.02 25.1535 427.393 37.7379 427.362 39.8017C439.589 52.4017 429.193 78.1914 428.743 79.2931C428.634 79.5569 428.37 79.6965 428.091 79.681C427.812 79.65 427.595 79.4483 427.533 79.169C427.486 78.9517 423.389 57.5224 421.341 50.5086C418.036 50.8345 399.819 52.1845 377.784 45.0155C377.52 48.6931 375.891 63.6828 366.379 73.1948C361.957 77.6172 368.567 94.2983 371.484 100.35C371.608 100.614 371.531 100.94 371.298 101.126C371.05 101.312 346.331 120.041 305.396 104.09C272.903 91.4431 258.317 98.0379 241.434 105.672C229.253 111.166 215.458 117.403 192.85 117.403ZM82.5067 38.5293C82.1498 45.3569 82.5377 66.3672 98.4429 84.6466C116.614 105.548 148.377 116.147 192.865 116.147C215.21 116.147 228.865 109.971 240.922 104.509C258.069 96.75 272.872 90.0465 305.862 102.895C343.243 117.45 366.798 102.709 370.134 100.397C368.567 97.0293 359.955 77.819 365.495 72.2793C376 61.7741 376.574 44.2862 376.574 44.1155C376.574 43.9138 376.683 43.7276 376.838 43.619C376.993 43.5103 377.21 43.4793 377.396 43.5414C401.727 51.6569 421.496 49.2052 421.698 49.1741C421.993 49.1431 422.288 49.3138 422.381 49.6086C424.041 54.9621 427.176 70.7741 428.324 76.6707C430.543 70.2 436.207 50.4 426.26 40.4535C426.136 40.3293 426.074 40.1586 426.074 39.9724C426.074 39.8328 426.71 26.519 414.389 15.6414C393.131 -3.13448 350.877 -0.124133 319.16 5.69483C309.058 7.5569 295.869 11.3586 281.919 15.3776C258.891 22.019 232.791 29.5448 215.474 29.5448C195.86 29.5448 186.767 16.2621 183.477 9.69828C184.564 18.2793 189.498 38.8862 211.781 43.5103C212.045 43.5724 212.246 43.7897 212.277 44.069C212.293 44.2086 212.37 45.4035 210.989 46.9241C208.165 50.0431 199.926 53.7828 176.743 53.7828C156.57 53.7828 144.265 45.3103 137.5 38.1879C133.155 33.6104 130.501 29.0793 129.027 26.0845C130.207 37.4276 136.538 71.1466 170.536 77.3534C170.831 77.4 171.048 77.6483 171.048 77.9586C171.064 78.2535 170.862 78.5173 170.567 78.5948C170.412 78.6259 154.817 82.4276 136.15 79.1379C119.345 76.1586 96.5498 66.6776 82.5067 38.5293Z" fill="white"/>
<path d="M319.687 723.243L305.148 700.479L295.31 705.274L309.647 728.054L319.687 723.243Z" fill="#A25172"/>
<path d="M312.053 779.85C312.053 779.85 319.47 753.036 308.888 728.426L309.648 728.069L295.31 705.29L282.027 711.76L312.053 779.85Z" fill="#F56F52"/>
<path d="M305.148 700.479L300.865 702.574L313.388 726.269L319.688 723.243L305.148 700.479Z" fill="#823F5D"/>
<path d="M397.616 842.757L365.774 834.254L360.855 846.683L392.526 855.372L397.616 842.757Z" fill="#A25172"/>
<path d="M437.355 900C437.355 900 421.931 869.741 392.138 856.319L392.526 855.357L360.855 846.667L354.229 863.426L437.355 900Z" fill="#F56F52"/>
<path d="M269.847 363.522L410.898 379.598C410.898 379.598 608.743 391.376 600.798 478.381C595.305 538.526 319.378 731.855 319.378 731.855L297.747 690.952L485.552 515.095C485.536 515.079 266.681 511.169 269.847 363.522Z" fill="#2C2C2C"/>
<path d="M416.437 215.286L503.815 333.403C503.815 333.403 634.222 375.191 642.601 376.697C650.996 378.202 664.62 371.033 666.56 375.222C668.499 379.412 656.179 384.067 656.179 384.067L675.699 380.188C675.699 380.188 670.765 397.66 663.984 399.755C661.392 400.562 657.218 405.869 652.749 407.529C645.906 410.09 641.949 409.097 641.949 409.097L459.808 370.955L386.442 257.834L416.437 215.286Z" fill="#823F5D"/>
<path d="M285.069 754.557C279.886 746.907 271.957 743.912 268.434 742.903C271.553 737.721 280.46 720.326 271.833 703.443C263.267 686.684 244.771 685.055 239.169 684.962C242.909 666.078 236.065 653.012 232.791 648.062L230.588 649.334C233.629 653.959 240.628 667.148 236.391 685.971C236.298 686.359 236.407 686.762 236.655 687.057C236.919 687.352 237.307 687.522 237.695 687.491C237.928 687.476 260.241 686.312 269.598 704.591C278.986 722.948 265.533 742.795 265.393 742.997C265.145 743.353 265.098 743.803 265.269 744.191C265.44 744.579 265.781 744.874 266.2 744.952C266.309 744.967 276.876 746.969 282.974 755.969C287.179 762.176 288.297 770.26 286.295 779.974C286.155 780.657 286.59 781.324 287.272 781.464C287.35 781.479 287.443 781.495 287.521 781.495C288.11 781.495 288.622 781.091 288.747 780.486C290.919 770.074 289.678 761.353 285.069 754.557Z" fill="#FFAC14"/>
<path d="M139.702 678.119C139.268 678.119 138.849 677.902 138.616 677.483L105.099 619.417C104.928 619.122 104.882 618.781 104.975 618.471C105.068 618.16 105.27 617.881 105.565 617.71L680.913 285.533C681.518 285.191 682.278 285.393 682.635 285.998L720.978 352.428C721.32 353.033 721.118 353.793 720.513 354.15L280.18 608.369C279.606 608.71 278.861 608.524 278.489 607.965C275.913 603.978 270.668 602.705 266.556 605.079L140.323 677.964C140.137 678.072 139.92 678.119 139.702 678.119ZM107.908 619.262L140.168 675.155L265.315 602.907C270.234 600.067 276.425 601.293 279.916 605.622L718.185 352.583L681.099 288.341L107.908 619.262Z" fill="white"/>
<path d="M135.746 688.841C129.198 688.841 122.836 685.443 119.329 679.391L98.6286 643.547C96.0993 639.171 95.4321 634.081 96.7355 629.193C98.039 624.321 101.173 620.24 105.549 617.71C106.155 617.369 106.915 617.571 107.272 618.176L145.615 684.605C145.786 684.9 145.832 685.241 145.739 685.552C145.646 685.862 145.444 686.141 145.149 686.312C142.201 688.034 138.942 688.841 135.746 688.841ZM105.751 620.566C102.508 622.769 100.196 626.028 99.1717 629.86C98.039 634.097 98.6131 638.503 100.817 642.305L121.517 678.15C125.83 685.614 135.156 688.407 142.806 684.745L105.751 620.566Z" fill="white"/>
<path d="M280.925 607.081C277.775 601.619 270.762 599.741 265.315 602.891L139.082 675.776C138.477 676.117 138.275 676.893 138.617 677.498C141.503 682.495 146.158 686.064 151.729 687.569C153.591 688.066 155.484 688.314 157.362 688.314C161.101 688.314 164.794 687.336 168.131 685.412L276.736 622.707C282.198 619.541 284.075 612.543 280.925 607.081ZM279.637 615.103C279.017 617.4 277.543 619.324 275.479 620.519L166.874 683.224C162.451 685.769 157.315 686.452 152.381 685.133C147.865 683.922 144.017 681.16 141.456 677.312L266.556 605.079C270.808 602.628 276.286 604.086 278.737 608.338C279.932 610.402 280.258 612.807 279.637 615.103Z" fill="white"/>
<path d="M683.707 287.86L684.126 288.59C685.088 288.357 685.988 288.093 686.857 287.829L683.707 287.86Z" fill="url(#paint1_linear)"/>
<path d="M724.16 343.303C721.553 342.838 718.605 342.512 715.191 342.388L719.583 350.007C719.769 350.038 719.955 350.069 720.141 350.116L724.16 343.303Z" fill="url(#paint2_linear)"/>
<path d="M728.583 335.778L732.571 328.981C727.729 327.274 721.491 325.769 712.026 325.769C709.745 325.769 707.665 325.862 705.741 326.017L709.481 332.488C710.288 332.457 711.126 332.426 712.026 332.426C720.002 332.441 723.958 333.884 728.583 335.778Z" fill="url(#paint3_linear)"/>
<path d="M712.025 298.428C712.615 298.428 713.189 298.443 713.747 298.459C713.918 298.459 714.089 298.474 714.244 298.474C714.616 298.49 715.004 298.505 715.361 298.521C715.547 298.536 715.718 298.536 715.889 298.552C716.23 298.583 716.572 298.598 716.882 298.629C717.037 298.645 717.192 298.66 717.347 298.676C717.689 298.707 718.015 298.753 718.341 298.784C718.465 298.8 718.589 298.816 718.697 298.831C719.085 298.878 719.458 298.94 719.815 299.002C719.861 299.017 719.923 299.017 719.97 299.033C721.289 299.266 722.484 299.545 723.601 299.871C725.789 300.507 727.759 301.314 729.901 302.198C732.322 303.191 734.897 304.247 738.001 305.116C736.666 303.641 735.472 302.043 734.478 300.321C733.656 298.909 732.973 297.419 732.415 295.898C729.109 294.703 725.261 293.633 720.14 293.059C720.109 293.059 720.078 293.059 720.047 293.043C719.52 292.981 718.992 292.934 718.434 292.888C718.341 292.872 718.232 292.872 718.123 292.857C717.627 292.81 717.099 292.779 716.587 292.748C716.447 292.733 716.292 292.733 716.153 292.717C715.656 292.686 715.128 292.671 714.616 292.655C714.446 292.655 714.291 292.64 714.104 292.64C713.422 292.624 712.723 292.609 711.994 292.609C711.218 292.609 710.458 292.624 709.728 292.64C709.48 292.64 709.263 292.655 709.015 292.671C708.534 292.686 708.053 292.702 707.603 292.733C707.323 292.748 707.059 292.764 706.796 292.795C706.392 292.826 705.989 292.841 705.601 292.872C705.322 292.888 705.058 292.919 704.794 292.95C704.437 292.981 704.065 293.012 703.708 293.059C703.428 293.09 703.18 293.121 702.901 293.167C702.575 293.214 702.234 293.245 701.923 293.291C701.659 293.322 701.411 293.369 701.147 293.415C700.837 293.462 700.527 293.509 700.232 293.571C699.984 293.617 699.735 293.664 699.503 293.71C699.208 293.772 698.928 293.819 698.649 293.881C698.416 293.928 698.184 293.99 697.951 294.036C697.687 294.098 697.408 294.16 697.159 294.222C696.927 294.284 696.709 294.331 696.477 294.393C696.228 294.455 695.98 294.517 695.732 294.579C695.515 294.641 695.297 294.703 695.08 294.766C694.847 294.828 694.615 294.905 694.382 294.967C694.165 295.029 693.963 295.091 693.746 295.169C693.528 295.231 693.311 295.309 693.109 295.371C692.892 295.448 692.69 295.51 692.473 295.588C692.272 295.65 692.07 295.728 691.884 295.79C691.682 295.867 691.465 295.945 691.263 296.007C691.077 296.069 690.89 296.147 690.72 296.209C690.503 296.286 690.301 296.364 690.084 296.441C689.913 296.503 689.758 296.566 689.587 296.628C689.37 296.721 689.137 296.798 688.92 296.891H688.904L692.349 302.865C692.923 302.633 693.513 302.4 694.072 302.167C699.239 300.088 703.289 298.428 712.025 298.428Z" fill="url(#paint4_linear)"/>
<path d="M703.15 316.226C703.228 316.21 703.305 316.195 703.367 316.179C703.74 316.102 704.128 316.04 704.531 315.978C704.64 315.962 704.733 315.947 704.842 315.931C705.788 315.791 706.812 315.667 707.899 315.59C708.038 315.574 708.193 315.574 708.333 315.559C708.752 315.528 709.186 315.512 709.636 315.497C709.807 315.497 709.962 315.481 710.133 315.481C710.738 315.466 711.343 315.45 711.995 315.45C720.592 315.45 724.58 317.095 729.638 319.174C730.181 319.407 730.755 319.624 731.33 319.872C731.547 319.965 731.78 320.043 731.997 320.136C732.323 320.26 732.649 320.4 732.99 320.524C734.154 320.974 735.426 321.393 736.776 321.812L740.423 315.605C739.367 315.202 738.297 314.783 737.195 314.333C734.836 313.371 732.23 312.3 729.017 311.384C727.947 311.09 726.83 310.795 725.604 310.547C725.542 310.531 725.464 310.516 725.402 310.5C724.89 310.391 724.362 310.298 723.835 310.205C723.664 310.174 723.478 310.143 723.307 310.112C722.857 310.035 722.407 309.972 721.942 309.895C721.709 309.864 721.476 309.833 721.243 309.802C720.809 309.74 720.359 309.693 719.909 309.647C719.645 309.616 719.381 309.584 719.118 309.569C718.652 309.522 718.186 309.491 717.705 309.445C717.426 309.429 717.162 309.398 716.867 309.383C716.355 309.352 715.812 309.321 715.269 309.305C715.005 309.29 714.757 309.274 714.493 309.274C713.686 309.243 712.849 309.228 711.98 309.228C711.142 309.228 710.335 309.243 709.543 309.259C709.295 309.259 709.078 309.274 708.83 309.29C708.286 309.305 707.743 309.336 707.231 309.367C706.983 309.383 706.735 309.398 706.486 309.414C706.005 309.445 705.524 309.476 705.059 309.522C704.826 309.538 704.593 309.569 704.376 309.6C703.911 309.647 703.445 309.693 702.995 309.755C702.793 309.786 702.592 309.802 702.405 309.833C701.94 309.895 701.474 309.957 701.04 310.035C700.885 310.066 700.73 310.081 700.574 310.112C700.093 310.19 699.628 310.283 699.178 310.36C699.069 310.376 698.961 310.407 698.852 310.422C698.355 310.516 697.874 310.624 697.393 310.733C697.331 310.748 697.269 310.764 697.223 310.779C697.13 310.795 697.036 310.826 696.943 310.841L700.45 316.909C700.481 316.893 700.512 316.893 700.543 316.878C701.381 316.629 702.25 316.412 703.15 316.226Z" fill="url(#paint5_linear)"/>
<path d="M719.893 354.305C719.443 354.305 719.024 354.057 718.807 353.669L680.448 287.255C680.231 286.867 680.231 286.386 680.448 285.998C680.665 285.61 681.084 285.362 681.534 285.362L731.934 284.959C732.276 284.943 732.586 285.083 732.834 285.316C733.067 285.548 733.207 285.874 733.207 286.2C733.238 290.7 734.448 295.153 736.698 299.048C738.948 302.959 742.191 306.217 746.086 308.498C746.381 308.669 746.583 308.948 746.66 309.259C746.738 309.585 746.691 309.926 746.52 310.205L720.979 353.653C720.746 354.072 720.343 354.305 719.893 354.305ZM683.707 287.86L719.893 350.55L743.712 310.019C739.926 307.567 736.76 304.231 734.495 300.321C732.229 296.41 730.926 291.988 730.693 287.488L683.707 287.86Z" fill="white"/>
<path d="M745.434 310.857C745.216 310.857 744.999 310.795 744.797 310.686C740.546 308.188 736.977 304.603 734.51 300.321C732.042 296.038 730.708 291.166 730.677 286.231C730.677 285.533 731.235 284.974 731.918 284.959L759.291 284.741C759.725 284.757 760.16 284.974 760.392 285.378C760.625 285.766 760.61 286.247 760.392 286.65L746.52 310.252C746.287 310.64 745.853 310.857 745.434 310.857ZM733.222 287.472C733.454 291.538 734.634 295.526 736.682 299.064C738.73 302.602 741.585 305.628 744.999 307.862L757.103 287.286L733.222 287.472Z" fill="white"/>
<path d="M541.615 465.75L234.203 361.428C234.203 361.428 196.108 502.247 254.437 534.848C312.767 567.45 458.893 554.943 458.893 554.943C458.893 554.943 372.4 767.017 350.675 833.928L404.458 848.297C404.458 848.297 525.493 621.016 555.332 561.817C594.141 484.821 541.615 465.75 541.615 465.75Z" fill="#424242"/>
<path d="M354.695 402.315L234.188 361.428C234.188 361.428 233.474 364.081 232.388 368.705C256.377 380.886 305.846 402.502 354.695 402.315Z" fill="black"/>
<path d="M258.441 424.722C258.099 424.722 257.805 424.443 257.805 424.102C257.805 423.76 258.084 423.466 258.441 423.466C299.779 423.466 319.843 390.74 320.044 390.414C320.215 390.119 320.603 390.026 320.913 390.197C321.208 390.383 321.301 390.755 321.131 391.066C320.929 391.391 300.508 424.722 258.441 424.722Z" fill="black"/>
<path d="M370.134 838.691C370.056 838.691 369.979 838.676 369.917 838.645C369.591 838.521 369.436 838.164 369.544 837.838L373.098 828.434C373.222 828.109 373.579 827.938 373.904 828.062C374.23 828.186 374.386 828.543 374.277 828.869L370.723 838.272C370.615 838.536 370.382 838.691 370.134 838.691ZM377.225 819.869C377.148 819.869 377.07 819.853 377.008 819.822C376.682 819.698 376.527 819.341 376.635 819.015L380.189 809.612C380.313 809.286 380.67 809.116 380.996 809.24C381.322 809.364 381.477 809.721 381.368 810.047L377.815 819.45C377.722 819.714 377.473 819.869 377.225 819.869ZM384.317 801.046C384.239 801.046 384.161 801.031 384.099 801C383.773 800.876 383.618 800.519 383.727 800.193L387.28 790.79C387.404 790.464 387.761 790.293 388.087 790.417C388.413 790.541 388.568 790.898 388.46 791.224L384.906 800.628C384.813 800.891 384.58 801.046 384.317 801.046ZM391.408 782.24C391.33 782.24 391.253 782.224 391.191 782.193C390.865 782.069 390.71 781.712 390.818 781.386L394.372 771.983C394.496 771.657 394.853 771.502 395.179 771.61C395.504 771.734 395.66 772.091 395.551 772.417L391.998 781.821C391.904 782.084 391.672 782.24 391.408 782.24ZM398.515 763.417C398.437 763.417 398.36 763.402 398.298 763.371C397.972 763.247 397.817 762.89 397.925 762.564L401.479 753.16C401.603 752.834 401.96 752.664 402.285 752.788C402.611 752.912 402.767 753.269 402.658 753.595L399.104 762.998C398.996 763.262 398.763 763.417 398.515 763.417ZM405.606 744.595C405.529 744.595 405.451 744.579 405.389 744.548C405.063 744.424 404.908 744.067 405.017 743.741L408.57 734.338C408.694 734.012 409.051 733.841 409.377 733.965C409.703 734.09 409.858 734.447 409.749 734.772L406.196 744.176C406.103 744.44 405.854 744.595 405.606 744.595ZM412.698 725.772C412.62 725.772 412.542 725.757 412.48 725.726C412.154 725.602 411.999 725.245 412.108 724.919L415.661 715.515C415.785 715.19 416.142 715.019 416.468 715.143C416.794 715.267 416.949 715.624 416.841 715.95L413.287 725.353C413.194 725.617 412.961 725.772 412.698 725.772ZM419.804 706.965C419.727 706.965 419.649 706.95 419.587 706.919C419.261 706.795 419.106 706.438 419.215 706.112L422.768 696.709C422.892 696.383 423.249 696.228 423.575 696.336C423.901 696.46 424.056 696.817 423.948 697.143L420.394 706.547C420.286 706.81 420.053 706.965 419.804 706.965ZM426.896 688.143C426.818 688.143 426.741 688.128 426.679 688.097C426.353 687.972 426.198 687.616 426.306 687.29L429.86 677.886C429.984 677.56 430.341 677.39 430.667 677.514C430.992 677.638 431.148 677.995 431.039 678.321L427.486 687.724C427.392 687.988 427.144 688.143 426.896 688.143ZM433.987 669.321C433.91 669.321 433.832 669.305 433.77 669.274C433.444 669.15 433.289 668.793 433.398 668.467L436.951 659.064C437.075 658.738 437.432 658.567 437.758 658.691C438.084 658.815 438.239 659.172 438.13 659.498L434.577 668.902C434.484 669.165 434.236 669.321 433.987 669.321ZM441.079 650.514C441.001 650.514 440.923 650.498 440.861 650.467C440.536 650.343 440.38 649.986 440.489 649.66L444.042 640.257C444.167 639.931 444.523 639.776 444.849 639.884C445.175 640.009 445.33 640.366 445.222 640.691L441.668 650.095C441.575 650.359 441.342 650.514 441.079 650.514ZM448.186 631.691C448.108 631.691 448.03 631.676 447.968 631.645C447.642 631.521 447.487 631.164 447.596 630.838L451.149 621.434C451.273 621.109 451.63 620.938 451.956 621.062C452.282 621.186 452.437 621.543 452.329 621.869L448.775 631.272C448.667 631.536 448.434 631.691 448.186 631.691ZM455.277 612.869C455.199 612.869 455.122 612.853 455.06 612.822C454.734 612.698 454.579 612.341 454.687 612.016L458.241 602.612C458.365 602.286 458.722 602.115 459.048 602.24C459.373 602.364 459.529 602.721 459.42 603.047L455.867 612.45C455.773 612.714 455.525 612.869 455.277 612.869ZM462.368 594.062C462.291 594.062 462.213 594.047 462.151 594.015C461.825 593.891 461.67 593.534 461.779 593.209L465.332 583.805C465.456 583.479 465.813 583.309 466.139 583.433C466.465 583.557 466.62 583.914 466.511 584.24L462.958 593.643C462.865 593.907 462.617 594.062 462.368 594.062ZM469.46 575.24C469.382 575.24 469.305 575.224 469.242 575.193C468.917 575.069 468.761 574.712 468.87 574.386L472.423 564.983C472.548 564.657 472.904 564.502 473.23 564.61C473.556 564.734 473.711 565.091 473.603 565.417L470.049 574.821C469.956 575.084 469.723 575.24 469.46 575.24ZM476.567 556.417C476.489 556.417 476.411 556.402 476.349 556.371C476.023 556.247 475.868 555.89 475.977 555.564L479.53 546.16C479.654 545.834 480.011 545.679 480.337 545.788C480.663 545.912 480.818 546.269 480.71 546.595L477.156 555.998C477.048 556.262 476.815 556.417 476.567 556.417ZM483.658 537.595C483.58 537.595 483.503 537.579 483.441 537.548C483.115 537.424 482.96 537.067 483.068 536.741L486.622 527.338C486.746 527.012 487.103 526.841 487.429 526.965C487.754 527.09 487.91 527.447 487.801 527.772L484.248 537.176C484.154 537.44 483.906 537.595 483.658 537.595ZM481.672 524.529C481.656 524.529 481.641 524.529 481.625 524.529L471.601 523.691C471.26 523.66 470.996 523.365 471.027 523.009C471.058 522.667 471.384 522.419 471.71 522.434L481.734 523.272C482.075 523.303 482.339 523.598 482.308 523.955C482.261 524.281 481.982 524.529 481.672 524.529ZM461.623 522.853C461.608 522.853 461.592 522.853 461.577 522.853L451.553 522.016C451.211 521.984 450.948 521.69 450.979 521.333C451.01 520.991 451.336 520.728 451.661 520.759L461.686 521.597C462.027 521.628 462.291 521.922 462.26 522.279C462.229 522.605 461.949 522.853 461.623 522.853ZM441.591 521.193C441.575 521.193 441.56 521.193 441.544 521.193L431.52 520.355C431.179 520.324 430.915 520.029 430.946 519.672C430.977 519.331 431.303 519.083 431.629 519.098L441.653 519.936C441.994 519.967 442.258 520.262 442.227 520.619C442.18 520.945 441.901 521.193 441.591 521.193ZM421.542 519.533C421.527 519.533 421.511 519.533 421.496 519.533L411.472 518.695C411.13 518.664 410.867 518.369 410.898 518.012C410.929 517.671 411.255 517.422 411.58 517.438L421.604 518.276C421.946 518.307 422.21 518.602 422.179 518.959C422.132 519.284 421.868 519.533 421.542 519.533ZM401.494 517.857C401.479 517.857 401.463 517.857 401.448 517.857L391.423 517.019C391.082 516.988 390.818 516.693 390.849 516.336C390.88 515.995 391.206 515.747 391.532 515.762L401.556 516.6C401.898 516.631 402.161 516.926 402.13 517.283C402.099 517.609 401.82 517.857 401.494 517.857ZM381.461 516.197C381.446 516.197 381.43 516.197 381.415 516.197L371.391 515.359C371.049 515.328 370.785 515.033 370.817 514.676C370.848 514.334 371.173 514.071 371.499 514.102L381.523 514.94C381.865 514.971 382.129 515.266 382.098 515.622C382.051 515.948 381.787 516.197 381.461 516.197ZM361.413 514.521C361.398 514.521 361.382 514.521 361.367 514.521L351.342 513.683C351.001 513.652 350.737 513.357 350.768 513C350.799 512.659 351.125 512.41 351.451 512.426L361.475 513.264C361.817 513.295 362.08 513.59 362.049 513.947C362.018 514.272 361.739 514.521 361.413 514.521ZM341.38 512.86C341.365 512.86 341.349 512.86 341.334 512.86L331.31 512.022C330.968 511.991 330.704 511.697 330.736 511.34C330.767 510.998 331.092 510.75 331.418 510.766L341.442 511.603C341.784 511.634 342.048 511.929 342.017 512.286C341.97 512.612 341.691 512.86 341.38 512.86ZM321.332 511.2C321.317 511.2 321.301 511.2 321.285 511.2L312.456 510.471C312.084 510.471 311.696 510.471 311.292 510.455C310.951 510.455 310.672 510.16 310.672 509.819C310.687 509.478 310.982 509.229 311.308 509.198C311.696 509.214 312.099 509.214 312.487 509.214L321.363 509.943C321.704 509.974 321.968 510.269 321.937 510.626C321.937 510.952 321.658 511.2 321.332 511.2ZM301.361 509.245C301.315 509.245 301.268 509.245 301.222 509.229C297.854 508.453 294.642 507.305 291.663 505.8C291.353 505.645 291.229 505.272 291.384 504.962C291.539 504.652 291.911 504.528 292.222 504.683C295.123 506.141 298.242 507.259 301.501 508.003C301.842 508.081 302.044 508.422 301.967 508.764C301.904 509.059 301.656 509.245 301.361 509.245ZM283.625 500.307C283.486 500.307 283.33 500.26 283.222 500.152C280.739 498.026 278.396 495.528 276.27 492.75C276.053 492.471 276.115 492.083 276.394 491.866C276.673 491.648 277.061 491.71 277.279 491.99C279.358 494.705 281.639 497.126 284.044 499.205C284.308 499.438 284.339 499.826 284.106 500.09C283.967 500.245 283.796 500.307 283.625 500.307ZM271.351 484.541C271.134 484.541 270.917 484.417 270.792 484.215C269.287 481.376 267.875 478.272 266.618 474.983C266.494 474.657 266.649 474.3 266.975 474.176C267.301 474.052 267.658 474.207 267.782 474.533C269.023 477.776 270.404 480.833 271.879 483.626C272.049 483.936 271.925 484.309 271.615 484.479C271.553 484.51 271.46 484.541 271.351 484.541ZM264.104 465.812C263.825 465.812 263.577 465.626 263.499 465.347C262.646 462.228 261.87 458.922 261.203 455.509C261.141 455.167 261.358 454.841 261.699 454.764C262.041 454.702 262.367 454.919 262.444 455.26C263.111 458.643 263.872 461.917 264.725 465.005C264.818 465.347 264.617 465.688 264.291 465.781C264.229 465.812 264.167 465.812 264.104 465.812ZM260.194 446.09C259.884 446.09 259.62 445.857 259.573 445.547C259.139 442.334 258.782 438.952 258.487 435.507C258.456 435.166 258.72 434.855 259.061 434.824C259.387 434.778 259.713 435.057 259.744 435.398C260.023 438.812 260.396 442.179 260.815 445.376C260.861 445.717 260.613 446.043 260.272 446.09C260.241 446.09 260.21 446.09 260.194 446.09ZM258.487 426.041C258.146 426.041 257.867 425.778 257.851 425.436C257.711 422.162 257.649 418.764 257.634 415.35C257.634 415.009 257.913 414.714 258.254 414.714C258.596 414.714 258.875 414.993 258.891 415.334C258.906 418.733 258.968 422.116 259.108 425.374C259.123 425.716 258.844 426.01 258.503 426.026C258.518 426.041 258.503 426.041 258.487 426.041ZM258.425 405.915H258.41C258.068 405.9 257.789 405.621 257.804 405.264C257.913 401.928 258.068 398.545 258.27 395.193C258.285 394.852 258.611 394.588 258.937 394.603C259.279 394.619 259.542 394.929 259.527 395.271C259.325 398.607 259.17 401.974 259.061 405.295C259.03 405.652 258.767 405.915 258.425 405.915ZM259.667 385.852C259.651 385.852 259.62 385.852 259.604 385.852C259.263 385.821 258.999 385.51 259.03 385.169C259.62 378.978 260.179 375.176 260.179 375.129C260.225 374.788 260.567 374.555 260.892 374.602C261.234 374.648 261.467 374.974 261.42 375.315C261.42 375.347 260.861 379.133 260.287 385.278C260.272 385.603 259.992 385.852 259.667 385.852Z" fill="black"/>
<path d="M371.935 91.1017L364.937 116.783C364.937 116.783 369.949 136.303 392.588 144.559C397.43 146.328 401.371 135.729 401.371 128.84V107.084L371.935 91.1017Z" fill="#A25172"/>
<path d="M424.6 84.2431C429.339 84.2431 433.181 80.4013 433.181 75.6621C433.181 70.9229 429.339 67.081 424.6 67.081C419.86 67.081 416.019 70.9229 416.019 75.6621C416.019 80.4013 419.86 84.2431 424.6 84.2431Z" fill="#823F5D"/>
<path d="M424.6 93.0259C421.062 93.0259 418.191 90.1552 418.191 86.6172C418.191 84.6 419.122 82.7379 420.736 81.5121L421.497 82.5207C420.193 83.4983 419.448 85.0035 419.448 86.6328C419.448 89.4724 421.76 91.7845 424.6 91.7845C427.44 91.7845 429.752 89.4724 429.752 86.6328C429.752 85.05 429.038 83.5759 427.781 82.5828L428.557 81.5897C430.109 82.8155 431.009 84.6466 431.009 86.6328C431.009 90.1397 428.138 93.0259 424.6 93.0259Z" fill="#FFAC14"/>
<path d="M395.567 121.624C397.615 121.624 399.523 121.484 401.355 121.252V107.084L371.934 91.1017L369.994 98.2241C374.603 110.917 382.392 121.624 395.567 121.624Z" fill="black"/>
<path d="M365.96 114.486C365.96 114.486 332.8 100.691 292.858 168.098C254.422 232.96 234.203 361.412 234.203 361.412C234.203 361.412 356.526 435.6 435.695 386.116L436.222 263.157C436.222 263.157 447.193 219.398 423.886 180C408.384 153.776 401.37 128.809 401.37 128.809C401.37 128.809 396.374 160.153 365.96 114.486Z" fill="#FEFFF0"/>
<path d="M367.17 387.931C341.877 387.931 318.818 382.329 300.601 375.859C263.127 362.529 237.508 342.698 237.26 342.497L238.036 341.503C238.284 341.705 263.763 361.428 301.067 374.679C335.453 386.891 387.203 395.953 438.503 369.745L439.077 370.862C414.56 383.384 389.949 387.931 367.17 387.931Z" fill="#B5B5A1"/>
<path d="M305.613 227.452C305.613 227.452 360.855 348.145 435.679 386.131L435.912 380.56L331.915 258.843L305.613 227.452Z" fill="#E1E2CF"/>
<path d="M397.041 215.286L486.979 334.474L629.924 382.5C629.924 382.5 643.362 387.171 660.694 378.59C666.653 375.641 669.043 382.484 656.039 388.614C656.039 388.614 654.937 390.088 661.175 388.753C662.324 388.505 668.593 384.284 668.593 384.284C668.593 384.284 670.843 394.728 663.068 397.505C655.294 400.283 650.282 409.112 641.95 409.112C633.617 409.112 628.139 406.691 618.441 403.96C602.831 399.569 459.281 397.009 441.358 386.457C404.722 364.919 331.915 258.843 331.915 258.843C331.915 258.843 384.581 239.183 397.041 215.286Z" fill="#A25172"/>
<path d="M302.883 701.302C302.712 701.302 302.541 701.24 302.417 701.1C302.184 700.852 302.2 700.448 302.448 700.216L309.803 693.357C310.052 693.124 310.455 693.14 310.688 693.388C310.921 693.636 310.905 694.04 310.657 694.272L303.302 701.131C303.193 701.24 303.038 701.302 302.883 701.302ZM317.578 687.569C317.407 687.569 317.236 687.507 317.112 687.367C316.879 687.119 316.895 686.716 317.143 686.483L324.498 679.624C324.747 679.391 325.15 679.407 325.383 679.655C325.616 679.903 325.6 680.307 325.352 680.54L317.997 687.398C317.888 687.522 317.733 687.569 317.578 687.569ZM332.272 673.852C332.102 673.852 331.931 673.79 331.807 673.65C331.574 673.402 331.59 672.998 331.838 672.766L339.193 665.907C339.441 665.674 339.845 665.69 340.078 665.938C340.31 666.186 340.295 666.59 340.047 666.822L332.691 673.681C332.583 673.79 332.428 673.852 332.272 673.852ZM346.967 660.119C346.797 660.119 346.626 660.057 346.502 659.917C346.269 659.669 346.284 659.266 346.533 659.033L353.888 652.174C354.136 651.941 354.54 651.957 354.772 652.205C355.005 652.453 354.99 652.857 354.741 653.09L347.386 659.948C347.278 660.057 347.122 660.119 346.967 660.119ZM361.662 646.386C361.491 646.386 361.321 646.324 361.197 646.185C360.964 645.936 360.979 645.533 361.228 645.3L368.583 638.441C368.831 638.209 369.234 638.224 369.467 638.472C369.7 638.721 369.685 639.124 369.436 639.357L362.081 646.216C361.972 646.324 361.817 646.386 361.662 646.386ZM376.357 632.653C376.186 632.653 376.016 632.591 375.891 632.452C375.659 632.203 375.674 631.8 375.922 631.567L383.278 624.709C383.526 624.476 383.929 624.491 384.162 624.74C384.395 624.988 384.379 625.391 384.131 625.624L376.776 632.483C376.667 632.607 376.512 632.653 376.357 632.653ZM391.052 618.936C390.881 618.936 390.71 618.874 390.586 618.735C390.353 618.486 390.369 618.083 390.617 617.85L397.972 610.991C398.221 610.759 398.624 610.774 398.857 611.022C399.09 611.271 399.074 611.674 398.826 611.907L391.471 618.766C391.362 618.874 391.207 618.936 391.052 618.936ZM405.747 605.203C405.576 605.203 405.405 605.141 405.281 605.002C405.048 604.754 405.064 604.35 405.312 604.117L412.667 597.259C412.916 597.026 413.319 597.041 413.552 597.29C413.784 597.538 413.769 597.941 413.521 598.174L406.166 605.033C406.057 605.141 405.902 605.203 405.747 605.203ZM420.441 591.471C420.271 591.471 420.1 591.409 419.976 591.269C419.743 591.021 419.759 590.617 420.007 590.385L427.362 583.526C427.61 583.293 428.014 583.309 428.247 583.557C428.479 583.805 428.464 584.209 428.216 584.441L420.86 591.3C420.752 591.409 420.597 591.471 420.441 591.471ZM435.136 577.738C434.966 577.738 434.795 577.676 434.671 577.536C434.438 577.288 434.453 576.885 434.702 576.652L442.057 569.793C442.305 569.56 442.709 569.576 442.941 569.824C443.174 570.072 443.159 570.476 442.91 570.709L435.555 577.567C435.447 577.691 435.291 577.738 435.136 577.738ZM449.831 564.021C449.66 564.021 449.49 563.959 449.366 563.819C449.133 563.571 449.148 563.167 449.397 562.935L456.752 556.076C457 555.843 457.403 555.859 457.636 556.107C457.869 556.355 457.853 556.759 457.605 556.991L450.25 563.85C450.141 563.959 449.986 564.021 449.831 564.021Z" fill="black"/>
<path d="M331.822 722.824C331.605 722.824 331.388 722.7 331.264 722.498L308.779 680.369C308.608 680.059 308.733 679.686 309.043 679.515C309.353 679.345 309.726 679.469 309.896 679.779L332.381 721.909C332.552 722.219 332.427 722.591 332.117 722.762C332.024 722.809 331.931 722.824 331.822 722.824Z" fill="black"/>
<path d="M324.948 250.945L324.638 249.734C369.87 238.143 392.526 208.009 392.743 207.698L393.751 208.443C393.534 208.738 370.615 239.245 324.948 250.945Z" fill="#B5B5A1"/>
<path d="M359.023 155.995L397.041 215.271L394.961 208.49C388.599 187.759 376.061 169.433 359.023 155.995Z" fill="#E1E2CF"/>
<path d="M392.572 145.179C385.512 145.179 377.909 139.857 369.979 129.383C364.145 121.655 360.281 113.803 360.234 113.726L361.367 113.167C361.522 113.478 376.605 143.907 392.572 143.907C400.781 143.907 403.14 136.226 403.171 136.148L404.381 136.505C404.35 136.598 401.712 145.179 392.572 145.179Z" fill="#B5B5A1"/>
<path d="M402.55 222.579L397.041 215.271C384.581 239.183 331.915 258.828 331.915 258.828C331.915 258.828 333.281 260.814 335.717 264.274C372.741 253.024 394.869 231.284 402.55 222.579Z" fill="#823F5D"/>
<path d="M427.315 68.431C425.965 61.7896 424.119 53.1 422.97 49.4224L422.66 48.4138L421.605 48.5534C421.419 48.5845 401.743 51.0052 377.582 42.9517L375.968 42.4241L375.922 44.1155C375.922 44.2862 375.348 61.5414 365.029 71.8603C359.458 77.4466 366.937 95.0431 369.234 100.04L369.125 100.102L369.777 101.25C376.062 112.391 384.937 118.04 396.125 118.04C409.936 118.04 419.665 111.119 425.05 97.4638C428.572 88.4793 429.363 78.4397 427.315 68.431Z" fill="#A25172"/>
<path d="M396.994 94.3138C396.979 94.3138 396.963 94.3138 396.963 94.3138C389.344 93.7086 384.162 88.65 383.944 88.4328C383.758 88.2466 383.758 87.9517 383.944 87.7655C384.131 87.5793 384.425 87.5793 384.612 87.7655C384.658 87.8121 389.763 92.7931 397.041 93.3828C397.305 93.3983 397.491 93.631 397.475 93.8948C397.444 94.1276 397.243 94.3138 396.994 94.3138Z" fill="black"/>
<path d="M385.667 78.7034C388.572 78.7034 390.927 77.8072 390.927 76.7017C390.927 75.5962 388.572 74.7 385.667 74.7C382.761 74.7 380.406 75.5962 380.406 76.7017C380.406 77.8072 382.761 78.7034 385.667 78.7034Z" fill="#823F5D"/>
<path d="M415.382 78.7034C418.288 78.7034 420.643 77.8072 420.643 76.7017C420.643 75.5962 418.288 74.7 415.382 74.7C412.477 74.7 410.122 75.5962 410.122 76.7017C410.122 77.8072 412.477 78.7034 415.382 78.7034Z" fill="#823F5D"/>
<path d="M393.24 63.0776C393.131 63.0776 393.007 63.0466 392.914 62.9845C392.868 62.9535 387.405 59.6793 381.028 62.581C380.718 62.7207 380.345 62.581 380.19 62.2707C380.05 61.9604 380.19 61.5879 380.5 61.4328C387.514 58.2517 393.318 61.7586 393.566 61.9138C393.861 62.1 393.954 62.4879 393.768 62.7828C393.659 62.9845 393.457 63.0776 393.24 63.0776Z" fill="black"/>
<path d="M410.898 64.3966C410.681 64.3966 410.464 64.2724 410.355 64.0707C410.184 63.7604 410.293 63.3879 410.603 63.2173C410.79 63.1086 415.29 60.6879 420.1 62.4879C420.426 62.6121 420.596 62.969 420.472 63.2948C420.348 63.6207 419.991 63.7914 419.665 63.6673C415.367 62.069 411.255 64.3035 411.208 64.319C411.115 64.3655 411.007 64.3966 410.898 64.3966Z" fill="black"/>
<path d="M387.173 71.0845C388.03 71.0845 388.725 70.3898 388.725 69.5328C388.725 68.6758 388.03 67.981 387.173 67.981C386.316 67.981 385.621 68.6758 385.621 69.5328C385.621 70.3898 386.316 71.0845 387.173 71.0845Z" fill="black"/>
<path d="M412.403 71.0845C413.26 71.0845 413.955 70.3898 413.955 69.5328C413.955 68.6758 413.26 67.981 412.403 67.981C411.546 67.981 410.852 68.6758 410.852 69.5328C410.852 70.3898 411.546 71.0845 412.403 71.0845Z" fill="black"/>
<path d="M401.51 85.7017C400.361 85.7017 399.228 85.4845 398.406 85.05C397.475 84.5535 396.979 83.8086 396.979 82.8931C396.979 82.6293 397.196 82.4276 397.444 82.4276C397.692 82.4276 397.91 82.6448 397.91 82.8931C397.91 83.4362 398.22 83.8862 398.841 84.2121C400.361 85.0345 403.356 84.9104 404.768 83.9638C405.265 83.6379 405.497 83.2655 405.451 82.8466C404.846 76.1276 403.31 68.4931 403.294 68.4155C403.248 68.1672 403.403 67.919 403.666 67.8569C403.915 67.8103 404.163 67.9655 404.225 68.2293C404.241 68.3069 405.792 75.9879 406.398 82.769C406.444 83.3121 406.289 84.0879 405.296 84.7552C404.349 85.3759 402.922 85.7017 401.51 85.7017Z" fill="black"/>
<path d="M362.329 84.2431C367.068 84.2431 370.91 80.4013 370.91 75.6621C370.91 70.9229 367.068 67.081 362.329 67.081C357.59 67.081 353.748 70.9229 353.748 75.6621C353.748 80.4013 357.59 84.2431 362.329 84.2431Z" fill="#A25172"/>
<path d="M369.079 80.9379C367.775 82.5983 365.882 83.7621 363.71 84.119C363.881 84.9259 364.067 85.7328 364.284 86.5397C366.627 85.5 368.412 83.4517 369.079 80.9379Z" fill="#823F5D"/>
<path d="M363.555 80.4259C362.562 80.4259 361.662 79.9448 361.212 79.1379C360.87 78.5328 360.514 77.2293 361.957 75.3672C362.112 75.1655 362.422 75.119 362.624 75.2897C362.826 75.4448 362.872 75.7397 362.702 75.9569C361.895 76.9966 361.646 77.9897 362.034 78.6879C362.345 79.2466 363.043 79.5569 363.788 79.4793C364.796 79.3707 365.619 78.5948 365.976 77.4C366.41 75.9724 366.286 74.8552 365.619 74.0483C363.912 72 359.179 72.5121 359.133 72.5121C358.869 72.5431 358.636 72.3569 358.605 72.0931C358.574 71.8293 358.76 71.5966 359.024 71.5655C359.241 71.5345 364.3 70.9914 366.348 73.4276C367.233 74.4828 367.403 75.9104 366.876 77.6483C366.395 79.2155 365.277 80.2397 363.896 80.3948C363.772 80.4259 363.664 80.4259 363.555 80.4259Z" fill="black"/>
<path d="M411.348 835.945C411.286 835.945 411.224 835.929 411.162 835.914L356.262 818.395C355.936 818.286 355.75 817.929 355.858 817.603C355.967 817.278 356.308 817.091 356.65 817.2L411.55 834.719C411.875 834.828 412.062 835.184 411.953 835.51C411.86 835.774 411.612 835.945 411.348 835.945Z" fill="black"/>
<path d="M637.046 402.61C636.891 402.61 636.72 402.533 636.643 402.378C636.503 402.16 636.581 401.866 636.814 401.726L652.269 392.664C652.486 392.54 652.781 392.602 652.92 392.835C653.06 393.052 652.982 393.347 652.75 393.486L637.295 402.548C637.201 402.579 637.124 402.61 637.046 402.61Z" fill="black"/>
<path d="M109.336 473.322H99.6531C97.4187 473.322 95.6031 471.507 95.6031 469.272V468.698C95.6031 464.896 94.098 461.172 91.3669 458.209C88.0618 454.624 86.3704 449.953 86.6186 445.065C87.0686 436.065 94.4704 428.571 103.455 428.012C108.482 427.686 113.293 429.409 116.955 432.853C120.57 436.252 122.634 441.031 122.634 445.997C122.634 450.667 120.85 455.105 117.607 458.488C114.891 461.297 113.401 465.005 113.401 468.915V469.272C113.386 471.507 111.57 473.322 109.336 473.322ZM104.603 430.495C104.262 430.495 103.92 430.51 103.579 430.526C95.8514 431.007 89.4893 437.462 89.1014 445.19C88.8842 449.395 90.3428 453.414 93.1824 456.502C96.348 459.931 98.0859 464.26 98.0859 468.698V469.272C98.0859 470.126 98.7842 470.809 99.6221 470.809H109.305C110.158 470.809 110.841 470.11 110.841 469.272V468.915C110.841 464.353 112.579 460.024 115.745 456.734C118.538 453.833 120.074 450.015 120.074 445.997C120.074 441.667 118.336 437.648 115.186 434.684C112.3 431.969 108.576 430.495 104.603 430.495Z" fill="#FFAC14"/>
<path d="M106.078 480.01H102.99C100.46 480.01 98.3965 477.947 98.3965 475.417V470.824H110.671V475.417C110.671 477.947 108.607 480.01 106.078 480.01ZM100.91 473.322V475.402C100.91 476.55 101.841 477.481 102.99 477.481H106.078C107.226 477.481 108.157 476.55 108.157 475.402V473.322H100.91Z" fill="#FFAC14"/>
<path d="M100.909 457.153C100.615 457.153 100.335 457.06 100.087 456.843C99.5594 456.393 99.4974 455.602 99.9474 455.074L104.882 449.317H100.366C99.8543 449.317 99.4043 449.007 99.2025 448.541C99.0008 448.076 99.1094 447.533 99.4818 447.176L107.427 439.247C107.923 438.75 108.715 438.766 109.211 439.247C109.708 439.743 109.708 440.534 109.211 441.031L103.408 446.819H107.613C108.109 446.819 108.544 447.098 108.761 447.548C108.963 447.998 108.885 448.526 108.575 448.898L101.856 456.719C101.608 457.014 101.251 457.153 100.909 457.153Z" fill="#FFAC14"/>
<path d="M311.634 736.619C311.51 736.619 311.386 736.572 311.308 736.479C307.693 732.864 303.876 732.321 303.845 732.321C303.581 732.29 303.41 732.057 303.441 731.793C303.472 731.529 303.705 731.359 303.969 731.39C304.139 731.405 308.143 731.979 311.976 735.812C312.162 735.998 312.162 736.293 311.976 736.479C311.883 736.572 311.758 736.619 311.634 736.619Z" fill="black"/>
<path d="M313.155 743.028C313.031 743.028 312.907 742.981 312.814 742.888C309.633 739.707 305.148 738.9 305.102 738.884C304.838 738.838 304.667 738.59 304.714 738.341C304.76 738.078 304.993 737.907 305.257 737.953C305.459 737.984 310.083 738.822 313.481 742.205C313.667 742.391 313.667 742.686 313.481 742.872C313.403 742.981 313.279 743.028 313.155 743.028Z" fill="black"/>
<path d="M314.071 749.095C313.946 749.095 313.822 749.048 313.729 748.955C311.34 746.565 307.739 746.146 307.708 746.131C307.445 746.1 307.258 745.867 307.29 745.603C307.321 745.34 307.553 745.169 307.817 745.184C307.972 745.2 311.774 745.65 314.396 748.272C314.583 748.459 314.583 748.753 314.396 748.94C314.303 749.048 314.179 749.095 314.071 749.095Z" fill="black"/>
<path d="M390.028 865.148C389.857 865.148 389.702 865.055 389.609 864.9C389.485 864.667 389.578 864.388 389.811 864.264C390.105 864.109 397.011 860.478 402.612 861.517C402.876 861.564 403.031 861.812 402.985 862.06C402.938 862.324 402.705 862.479 402.442 862.433C397.166 861.455 390.323 865.04 390.245 865.071C390.183 865.133 390.105 865.148 390.028 865.148Z" fill="black"/>
<path d="M398.763 869.416C398.624 869.416 398.469 869.354 398.376 869.229C398.22 869.012 398.267 868.717 398.484 868.578C398.686 868.423 403.527 864.962 409.051 866.095C409.3 866.141 409.47 866.39 409.424 866.654C409.377 866.902 409.129 867.072 408.865 867.026C403.745 865.971 399.074 869.323 399.027 869.354C398.95 869.385 398.857 869.416 398.763 869.416Z" fill="black"/>
<path d="M405.249 873.807C405.079 873.807 404.908 873.714 404.815 873.528C404.706 873.295 404.815 873.015 405.048 872.907C405.234 872.814 409.765 870.75 414.373 870.75C414.637 870.75 414.839 870.967 414.839 871.216C414.839 871.479 414.622 871.681 414.373 871.681C409.967 871.681 405.482 873.729 405.451 873.76C405.389 873.791 405.327 873.807 405.249 873.807Z" fill="black"/>
<path d="M357.24 93.0259C353.702 93.0259 350.831 90.1552 350.831 86.6172C350.831 84.6 351.762 82.7379 353.376 81.5121L354.136 82.5207C352.833 83.4983 352.088 85.0035 352.088 86.6328C352.088 89.4724 354.4 91.7845 357.24 91.7845C360.079 91.7845 362.391 89.4724 362.391 86.6328C362.391 85.05 361.678 83.5603 360.421 82.5828L361.197 81.5897C362.748 82.8155 363.648 84.6466 363.648 86.6328C363.648 90.1397 360.762 93.0259 357.24 93.0259Z" fill="#FFAC14"/>
<defs>
<linearGradient id="paint0_linear" x1="69.8818" y1="251.353" x2="754.116" y2="251.353" gradientUnits="userSpaceOnUse">
<stop stop-color="#FBAA24"/>
<stop offset="1" stop-color="#EC2C91"/>
</linearGradient>
<linearGradient id="paint1_linear" x1="69.8898" y1="288.216" x2="754.116" y2="288.216" gradientUnits="userSpaceOnUse">
<stop stop-color="#FBAA24"/>
<stop offset="1" stop-color="#EC2C91"/>
</linearGradient>
<linearGradient id="paint2_linear" x1="69.8805" y1="346.257" x2="754.117" y2="346.257" gradientUnits="userSpaceOnUse">
<stop stop-color="#FBAA24"/>
<stop offset="1" stop-color="#EC2C91"/>
</linearGradient>
<linearGradient id="paint3_linear" x1="69.8815" y1="330.774" x2="754.117" y2="330.774" gradientUnits="userSpaceOnUse">
<stop stop-color="#FBAA24"/>
<stop offset="1" stop-color="#EC2C91"/>
</linearGradient>
<linearGradient id="paint4_linear" x1="69.8816" y1="298.88" x2="754.116" y2="298.88" gradientUnits="userSpaceOnUse">
<stop stop-color="#FBAA24"/>
<stop offset="1" stop-color="#EC2C91"/>
</linearGradient>
<linearGradient id="paint5_linear" x1="69.8828" y1="315.491" x2="754.117" y2="315.491" gradientUnits="userSpaceOnUse">
<stop stop-color="#FBAA24"/>
<stop offset="1" stop-color="#EC2C91"/>
</linearGradient>
</defs>
</svg>
