<svg width="204" height="26" viewBox="0 0 204 26" fill="none" xmlns="http://www.w3.org/2000/svg">
<path fill-rule="evenodd" clip-rule="evenodd" d="M0.447998 25V7.252H6.136V25H0.447998ZM0.447998 5.74V0.988004H6.136V5.74H0.447998ZM11.032 25V7.252H16.72V9.412C19.168 7.396 21.04 6.64 23.632 6.64C26.08 6.64 28.348 7.504 29.752 9.016C31.12 10.456 31.552 11.968 31.552 15.208V25H25.864V15.604C25.864 13.804 25.504 12.76 24.604 11.968C23.812 11.284 22.696 10.888 21.472 10.888C18.52 10.888 16.72 12.724 16.72 15.748V25H11.032ZM42.928 2.212V7.252H47.104V11.32H42.928V18.736C42.928 20.284 43.468 20.716 45.34 20.68H46.96V25H43.432C38.32 25 37.168 23.812 37.24 18.664V11.32H34.684V7.252H37.24V2.212H42.928ZM71.044 17.26H55.204C55.24 20.032 57.22 21.76 60.28 21.76C62.476 21.76 63.844 21.004 64.528 19.384H70.828C70.252 21.004 69.496 22.048 68.056 23.236C66.004 24.928 63.592 25.72 60.46 25.72C56.716 25.72 53.764 24.712 51.928 22.84C50.308 21.184 49.444 18.88 49.444 16.252C49.444 10.312 53.62 6.532 60.244 6.532C64.708 6.532 68.056 8.188 69.676 11.248C70.612 12.976 70.972 14.668 71.044 17.26ZM55.384 13.732H64.96C64.384 11.284 62.8 10.06 60.172 10.06C57.544 10.06 55.924 11.284 55.384 13.732ZM75.076 7.252H80.764V9.844C82.348 7.792 84.256 6.82 86.776 6.82C87.1 6.82 87.352 6.856 87.928 6.892V11.68C87.136 11.464 86.704 11.428 86.092 11.428C82.816 11.428 80.764 13.444 80.764 16.684V25H75.076V7.252ZM103.084 7.252V11.32H99.232V25H93.544V11.32H91.024V7.252H93.544V5.596C93.544 2.428 95.272 0.916004 98.872 0.988004H103.084V5.128H100.924C99.736 5.128 99.232 5.524 99.232 6.388V7.252H103.084ZM111.612 12.976H105.852C106.176 10.96 106.68 9.808 107.724 8.872C109.38 7.396 112.548 6.532 116.292 6.532C119.892 6.532 122.808 7.324 124.32 8.692C125.328 9.592 125.868 11.212 125.868 13.264V22.876C125.868 24.136 125.904 24.244 126.264 25H120.648C120.396 24.28 120.36 24.028 120.288 22.876C118.2 24.928 116.04 25.72 112.512 25.72C109.74 25.72 107.58 25.072 106.212 23.848C105.024 22.768 104.412 21.4 104.412 19.852C104.412 18.016 105.348 16.468 107.04 15.532C108.336 14.848 109.416 14.632 114.24 14.2C119.388 13.768 120.18 13.48 120.18 12.292C120.18 10.888 118.596 10.06 115.896 10.06C113.016 10.06 111.792 10.888 111.612 12.976ZM120.288 17.692V16.468C118.632 17.044 118.02 17.188 115.428 17.44C112.98 17.656 112.296 17.764 111.612 18.052C110.964 18.34 110.532 19.024 110.532 19.744C110.532 21.112 111.972 22.192 113.844 22.192C115.428 22.192 117.156 21.616 118.56 20.644C119.712 19.852 120.288 18.844 120.288 17.692ZM145.596 17.872H151.644C150.708 22.84 146.676 25.72 140.7 25.72C136.92 25.72 133.824 24.532 132.024 22.336C130.62 20.68 129.9 18.592 129.9 16.324C129.9 10.492 134.4 6.532 141.024 6.532C144.444 6.532 147.36 7.648 149.124 9.592C150.168 10.78 150.78 12.004 151.212 13.948H145.488C144.912 11.68 143.4 10.492 140.952 10.492C137.712 10.492 135.552 12.724 135.552 16.036C135.552 19.384 137.712 21.76 140.808 21.76C143.292 21.76 145.128 20.284 145.596 17.872ZM176.268 17.26H160.428C160.464 20.032 162.444 21.76 165.504 21.76C167.7 21.76 169.068 21.004 169.752 19.384H176.052C175.476 21.004 174.72 22.048 173.28 23.236C171.228 24.928 168.816 25.72 165.684 25.72C161.94 25.72 158.988 24.712 157.152 22.84C155.532 21.184 154.668 18.88 154.668 16.252C154.668 10.312 158.844 6.532 165.468 6.532C169.932 6.532 173.28 8.188 174.9 11.248C175.836 12.976 176.196 14.668 176.268 17.26ZM160.608 13.732H170.184C169.608 11.284 168.024 10.06 165.396 10.06C162.768 10.06 161.148 11.284 160.608 13.732ZM190.36 15H187.8V8.088H184.984V6.36H185.336C186.376 6.36 187.192 6.088 187.672 5.592C187.928 5.336 188.04 5.112 188.152 4.648H190.36V15ZM193.976 12.328H197.144C197.4 12.984 197.88 13.288 198.68 13.288C199.88 13.288 200.568 12.488 200.632 11.016C199.768 11.512 198.984 11.72 198.04 11.72C195.656 11.72 193.896 10.2 193.896 8.136C193.896 5.96 195.768 4.408 198.408 4.408C201.496 4.408 203.288 6.36 203.288 9.704C203.288 11.704 202.648 13.352 201.48 14.312C200.728 14.92 199.672 15.24 198.408 15.24C197.08 15.24 195.96 14.904 195.16 14.264C194.568 13.768 194.248 13.256 193.976 12.328ZM198.488 6.36C197.32 6.36 196.488 7.064 196.488 8.04C196.488 9.064 197.304 9.768 198.488 9.768C199.64 9.768 200.472 9.064 200.472 8.072C200.472 7.064 199.64 6.36 198.488 6.36Z" fill="url(#paint0_linear)"/>
<defs>
<linearGradient id="paint0_linear" x1="3.56895" y1="13.5043" x2="206.52" y2="-8.78961" gradientUnits="userSpaceOnUse">
<stop stop-color="#FBAA24"/>
<stop offset="1" stop-color="#EC2C91"/>
</linearGradient>
</defs>
</svg>
