<svg width="99" height="24" viewBox="0 0 99 24" fill="none" xmlns="http://www.w3.org/2000/svg">
<path d="M13.3207 23.9531L14.9858 20.9672H21.6461L16.6508 12.1898L9.99055 23.9531H6.6604L16.6508 5.98828L26.6413 23.9531H13.3207Z" fill="#F8F8F8"/>
<path d="M3.33015 23.9531H0L13.3206 0L14.9857 3.00234L3.33015 23.9531Z" fill="#F8F8F8"/>
<path d="M30.3794 13.9799V1.85571H31.8812V13.9799H30.3794Z" fill="#F8F8F8"/>
<path d="M57.7061 10.5655C57.7061 11.4843 57.347 12.3374 56.7103 12.9772C56.0737 13.6171 55.2248 13.978 54.3106 13.978H49.7072V12.4686H54.3106C54.8167 12.4686 55.2901 12.2718 55.6492 11.9108C56.0084 11.5499 56.2043 11.0741 56.2043 10.5655C56.2043 10.0569 56.0084 9.58114 55.6492 9.2202C55.2901 8.85926 54.8167 8.66239 54.3106 8.66239H52.7109C51.7967 8.66239 50.9479 8.30145 50.3112 7.66161C49.6746 7.02177 49.3154 6.16864 49.3154 5.2499C49.3154 4.33115 49.6746 3.47802 50.3112 2.83818C50.9479 2.19834 51.7967 1.8374 52.7109 1.8374H56.9389V3.34677H52.7109C52.2048 3.34677 51.7314 3.54365 51.3723 3.90459C51.0132 4.26552 50.8173 4.7413 50.8173 5.2499C50.8173 5.75849 51.0132 6.23427 51.3723 6.59521C51.7314 6.95614 52.2048 7.15302 52.7109 7.15302H54.3106C55.2248 7.15302 56.0737 7.51396 56.7103 8.1538C57.3633 8.79364 57.7061 9.64676 57.7061 10.5655Z" fill="#F8F8F8"/>
<path d="M98.729 1.85376L93.9623 8.67875V13.978H92.4442V8.67875L87.6775 1.85376H89.5058L93.1951 7.12016L96.8844 1.85376H98.729Z" fill="#F8F8F8"/>
<path d="M44.81 13.978V1.85376H44.206H43.2919H42.394V3.46157H43.2919V10.8772L37.9375 1.85376H37.9049H36.3867V13.978H37.9049V4.72485L43.2919 13.978H44.81Z" fill="#F8F8F8"/>
<path d="M85.0166 13.978V1.85376H84.4126H83.4984H82.5843V3.46157H83.4984V10.8772L78.1277 1.85376H78.1114H76.5933V13.978H78.1114V4.72485L83.4984 13.978H85.0166Z" fill="#F8F8F8"/>
<path d="M66.7987 1.85376H65.2805L60.0078 13.978H61.6566L63.7624 9.13812L66.0315 3.88813L68.2516 8.99047L69.0841 10.8772L70.4227 13.978H72.0714L66.7987 1.85376Z" fill="#F8F8F8"/>
<path d="M60.5957 17.9482C61.2487 17.9482 61.7547 18.1123 62.1138 18.4568C62.473 18.8014 62.6525 19.31 62.6525 19.999C62.6525 20.36 62.6199 20.6717 62.5383 20.9506C62.4566 21.2295 62.3424 21.4592 62.1628 21.656C61.9996 21.8529 61.7874 21.9842 61.5262 22.099C61.265 22.1975 60.9548 22.2467 60.612 22.2467H59.1428V17.9646H60.5957V17.9482ZM60.6447 21.7545C60.7099 21.7545 60.7916 21.7545 60.8895 21.7381C60.9875 21.7217 61.0854 21.7053 61.1997 21.6725C61.3139 21.6396 61.4119 21.574 61.5262 21.5084C61.6241 21.4428 61.7221 21.3443 61.8037 21.2131C61.8853 21.0818 61.9506 20.9342 62.0159 20.7537C62.0812 20.5732 62.0975 20.3436 62.0975 20.0811C62.0975 19.8186 62.0649 19.5889 62.0159 19.392C61.9669 19.1951 61.8853 19.0146 61.771 18.8834C61.6568 18.7357 61.5098 18.6373 61.3303 18.5553C61.1507 18.4732 60.9222 18.4404 60.661 18.4404H59.6978V21.7709H60.6447V21.7545Z" fill="#F8F8F8"/>
<path d="M69.019 17.9483V18.4241H66.6519V19.7858H68.872V20.2616H66.6519V21.7381H69.0516V22.2139H66.0969V17.9319H69.019V17.9483Z" fill="#F8F8F8"/>
<path d="M74.6019 18.5389C74.406 18.4077 74.1774 18.3256 73.8836 18.3256C73.7693 18.3256 73.6387 18.342 73.5245 18.3584C73.4102 18.3749 73.3123 18.4241 73.2143 18.4733C73.1327 18.5225 73.0511 18.6045 73.0021 18.703C72.9531 18.8014 72.9205 18.9163 72.9205 19.0475C72.9205 19.1788 72.9531 19.2936 73.0348 19.3756C73.1164 19.4577 73.2143 19.5233 73.3449 19.5725C73.4755 19.6217 73.6224 19.6709 73.7857 19.7038C73.9489 19.7366 74.1122 19.7694 74.2917 19.8186C74.455 19.8514 74.6345 19.9006 74.7978 19.9663C74.961 20.0155 75.1079 20.0975 75.2385 20.1795C75.3691 20.278 75.4671 20.3928 75.5487 20.5241C75.6303 20.6717 75.663 20.8358 75.663 21.0491C75.663 21.2788 75.614 21.4756 75.516 21.6397C75.4181 21.8038 75.2875 21.935 75.1243 22.0334C74.961 22.1319 74.7814 22.2139 74.5856 22.2631C74.3897 22.3123 74.1938 22.3288 73.9979 22.3288C73.753 22.3288 73.5408 22.2959 73.3123 22.2467C73.1 22.1811 72.9042 22.0991 72.7572 21.9678C72.594 21.853 72.4634 21.6889 72.3818 21.492C72.2838 21.2952 72.2349 21.0819 72.2349 20.8194H72.7736C72.7736 20.9998 72.8062 21.1475 72.8715 21.2788C72.9368 21.41 73.0348 21.5084 73.149 21.6069C73.2633 21.6889 73.3939 21.7545 73.5408 21.7873C73.6877 21.8202 73.851 21.853 74.0142 21.853C74.1448 21.853 74.2754 21.8366 74.406 21.8202C74.5366 21.8038 74.6509 21.7545 74.7488 21.7053C74.8467 21.6561 74.9284 21.5741 74.9937 21.4756C75.059 21.3772 75.0916 21.2459 75.0916 21.0983C75.0916 20.9506 75.059 20.8358 74.9773 20.7373C74.8957 20.6389 74.7978 20.5733 74.6672 20.5077C74.5366 20.442 74.3897 20.4092 74.2264 20.36C74.0632 20.3108 73.8999 20.2944 73.7204 20.2452C73.5571 20.2123 73.3776 20.1631 73.2143 20.1139C73.0511 20.0647 72.9042 19.9991 72.7736 19.917C72.643 19.835 72.545 19.7366 72.4634 19.6053C72.3818 19.4741 72.3491 19.31 72.3491 19.1131C72.3491 18.8999 72.3981 18.703 72.4797 18.5553C72.5613 18.3913 72.6756 18.26 72.8225 18.1616C72.9695 18.0631 73.1327 17.9811 73.3123 17.9319C73.4918 17.8827 73.6877 17.8499 73.8836 17.8499C74.0958 17.8499 74.308 17.8827 74.4876 17.9319C74.6672 17.9811 74.8467 18.0631 74.9773 18.178C75.1243 18.2928 75.2222 18.4241 75.3038 18.6045C75.3854 18.7686 75.4344 18.9819 75.4344 19.2116H74.8957C74.912 18.8999 74.7978 18.6702 74.6019 18.5389Z" fill="#F8F8F8"/>
<path d="M79.6788 17.9482V22.2303H79.1074V17.9482H79.6788Z" fill="#F8F8F8"/>
<path d="M85.9472 22.1811C85.7024 22.2795 85.4575 22.3288 85.1963 22.3288C84.8698 22.3288 84.5923 22.2631 84.3475 22.1483C84.1026 22.0334 83.8904 21.8694 83.7108 21.6725C83.5313 21.4756 83.4007 21.2459 83.3027 20.9834C83.2048 20.7209 83.1721 20.4584 83.1721 20.1795C83.1721 19.8678 83.2211 19.5725 83.3027 19.2936C83.3843 19.0147 83.5149 18.7686 83.6782 18.5553C83.8414 18.342 84.0536 18.178 84.3148 18.0467C84.5597 17.9155 84.8698 17.8499 85.1963 17.8499C85.4249 17.8499 85.6371 17.8827 85.8493 17.9319C86.0615 17.9811 86.2411 18.0631 86.4043 18.1944C86.5676 18.3256 86.6982 18.4569 86.8124 18.6374C86.9267 18.8178 86.992 19.0311 87.041 19.2772H86.4696C86.437 19.1131 86.388 18.9655 86.3064 18.8506C86.2248 18.7358 86.1431 18.6374 86.0289 18.5553C85.9146 18.4733 85.784 18.4241 85.6534 18.3913C85.5065 18.3584 85.3596 18.342 85.1963 18.342C84.9351 18.342 84.7229 18.3913 84.527 18.5061C84.3475 18.6045 84.1842 18.7522 84.07 18.9163C83.9557 19.0803 83.8741 19.2772 83.8088 19.4905C83.7598 19.7038 83.7271 19.9334 83.7271 20.1631C83.7271 20.3928 83.7598 20.6061 83.8251 20.803C83.8904 21.0163 83.9883 21.1967 84.1026 21.3444C84.2332 21.5084 84.3801 21.6233 84.5597 21.7217C84.7392 21.8202 84.9515 21.8694 85.1963 21.8694C85.4249 21.8694 85.6208 21.8366 85.784 21.7545C85.9472 21.6889 86.0942 21.5905 86.2248 21.4592C86.339 21.328 86.437 21.1803 86.4859 21.0163C86.5512 20.8522 86.5676 20.6553 86.5676 20.4748H85.2126V19.9991H87.0736V22.2631H86.7145L86.5676 21.7217C86.4043 21.9186 86.1921 22.0827 85.9472 22.1811Z" fill="#F8F8F8"/>
<path d="M91.2527 17.9482L93.5054 21.4264H93.5217V17.9482H94.0604V22.2303H93.4238L91.2037 18.785H91.1874V22.2303H90.6487V17.9482H91.2527Z" fill="#F8F8F8"/>
</svg>
