<svg width="81" height="68" viewBox="0 0 81 68" fill="none" xmlns="http://www.w3.org/2000/svg">
<path fill-rule="evenodd" clip-rule="evenodd" d="M50.3311 23.6519H64.6082C64.6827 23.6525 64.7564 23.6652 64.8266 23.6891C64.8616 23.7009 64.8952 23.7154 64.9276 23.7327C65.0258 23.7848 65.1101 23.8595 65.1733 23.951C65.2363 24.0422 65.2764 24.1474 65.2905 24.2575C65.299 24.3244 65.2975 24.3918 65.2863 24.4579C65.2786 24.5006 65.2674 24.5426 65.2519 24.5834L63.6726 28.8417C63.5349 29.2116 63.2866 29.5304 62.9615 29.7557C62.6365 29.9808 62.2497 30.1016 61.8538 30.1014H50.3311V67.8159H45.1824V30.0996H42.1978C41.4012 33.6036 39.3361 36.6924 36.3958 38.7752C33.456 40.8582 29.8489 41.789 26.2627 41.39C22.6774 40.9908 19.3649 39.2897 16.9594 36.612C14.5547 33.9341 13.2245 30.4674 13.2245 26.8748C13.2245 23.2821 14.5547 19.8154 16.9594 17.1376C19.3649 14.4598 22.6774 12.7587 26.2627 12.3596C29.8489 11.9605 33.456 12.8914 36.3958 14.9743C39.3361 17.0572 41.4012 20.1459 42.1978 23.6499H45.1747V13.2474C45.1747 5.79962 49.4802 0.918978 56.1472 0.815918H56.2426V5.50751H56.1563C52.3463 5.55904 50.3311 8.26755 50.3311 13.3333V23.6519ZM22.4083 34.7809C23.9717 35.8263 25.81 36.3842 27.6908 36.3838C30.2095 36.3838 32.6256 35.3829 34.408 33.6011C36.1895 31.8191 37.1919 29.402 37.1939 26.881C37.1953 24.9991 36.6399 23.159 35.5963 21.5934C34.5528 20.0279 33.0691 18.8071 31.3322 18.0858C29.5954 17.3644 27.6837 17.1747 25.8392 17.5408C23.9947 17.9069 22.3006 18.8124 20.9702 20.1425C19.6397 21.4727 18.7339 23.1677 18.3667 25.0135C17.9995 26.8591 18.1876 28.7721 18.9067 30.5108C19.6264 32.2495 20.845 33.7355 22.4083 34.7809ZM75.2534 24.6876V13.2233H70.2551V52.927H75.2534V29.8376H81V24.6876H75.2534ZM19.8367 47.6782C11.733 47.6782 5.1644 41.6725 5.1644 33.5597V13.2233H0V33.496C0 38.6482 2.04393 43.5893 5.68225 47.2332C9.32057 50.8769 14.2553 52.925 19.402 52.927H19.8311V47.6782H19.8367Z" fill="#F8F8F8"/>
</svg>
