<svg width="170" height="42" viewBox="0 0 170 42" fill="none" xmlns="http://www.w3.org/2000/svg">
<path fill-rule="evenodd" clip-rule="evenodd" d="M151.064 14.698H145.265V0H150.662C154.064 0 155.693 1.69372 155.693 3.98311C155.693 5.69836 154.739 6.68876 153.174 7.05477V7.17678C154.796 7.36337 156.074 8.70543 156.074 10.7365C156.074 13.0617 154.401 14.698 151.064 14.698ZM148.1 2.38269V6.22227H150.447C152.055 6.22227 152.909 5.55483 152.909 4.29171C152.909 3.27261 152.342 2.38269 150.598 2.38269H148.1ZM153.303 10.4207C153.303 9.26522 152.55 8.282 151 8.282H148.1V12.3153H150.892C152.607 12.3153 153.303 11.5618 153.303 10.4207ZM166.032 14.698L163.304 9.20063H160.843V14.698H158.008V0H163.426C166.907 0 168.601 1.83008 168.601 4.56443C168.601 6.60263 167.61 7.91599 166.132 8.65519L169.175 14.698H166.032ZM160.843 2.38269V6.82511H163.362C164.991 6.82511 165.795 6.02849 165.795 4.62184C165.795 3.32285 165.084 2.38269 163.426 2.38269H160.843ZM9.84108 1.57944H11.5227V29.8215H23.2797V1.65619H34.9781V41.7181H0V1.57944H1.68163V40.0347H33.2972V3.33968H24.962V31.505H9.84108V1.57944ZM113.851 1.57944H115.532V41.7181H80.5542V1.65619H92.2526V29.8215H104.01V1.57944H105.692V31.505H90.5702V3.33968H82.2358V40.0347H113.851V1.57944ZM130.805 1.57944H132.487V41.7181H120.674V1.57944H122.356V40.0347H130.805V1.57944ZM38.7578 1.31298H51.3844L57.4213 11.049L62.7871 1.5664H75.4124L52.2173 41.7181H50.2834L72.5169 3.24989H63.7183L42.061 41.7044H40.0772L51.4748 21.5605L38.7578 1.31298ZM64.8382 24.7109L65.7781 23.215L77.3839 41.7326H64.7587L59.5085 33.1943L60.5047 31.6092L65.6892 40.0477H74.4892L64.8382 24.7109ZM41.6533 2.99646L52.3641 19.987L56.4771 12.7173L50.4525 2.99646H41.6533Z" fill="#F8F8F8"/>
</svg>
