<svg width="103" height="19" viewBox="0 0 103 19" fill="none" xmlns="http://www.w3.org/2000/svg">
<path fill-rule="evenodd" clip-rule="evenodd" d="M4.11657 8.75564V4.18858H6.49849C8.05192 4.18858 9.11342 5.04648 9.11342 6.48473C9.11342 7.87251 8.05192 8.75564 6.49849 8.75564H4.11657ZM6.91274 12.1873C10.641 12.1873 13.2041 9.84064 13.2041 6.4595C13.2041 3.12882 10.641 0.731739 6.91274 0.731739H0V18.6215H4.09068V12.1873H6.91274ZM19.0367 18.6215V6.08101H15.1014V18.6215H19.0367ZM14.7648 2.24568C14.7648 3.48207 15.8004 4.49137 17.0432 4.49137C18.3377 4.49137 19.3733 3.48207 19.3733 2.24568C19.3733 1.0093 18.3377 0 17.0432 0C15.8004 0 14.7648 1.0093 14.7648 2.24568ZM38.7914 10.8499C38.8691 9.91634 39.6976 8.73041 41.3545 8.73041C43.2187 8.73041 43.8918 9.8911 43.9436 10.8499H38.7914ZM44.2284 14.1049C43.8659 15.089 43.0633 15.745 41.6393 15.745C40.1118 15.745 38.7914 14.7357 38.7137 13.3227H47.6718C47.6977 13.247 47.7495 12.6667 47.7495 12.1368C47.7495 8.0996 45.2899 5.70252 41.3028 5.70252C37.9629 5.70252 34.8819 8.27623 34.8819 12.3134C34.8819 16.5272 38.0406 19 41.5876 19C44.8498 19 46.8951 17.1833 47.5165 15.0133L44.2284 14.1049ZM53.6938 18.6215V0.353254H49.7584V18.6215H53.6938ZM62.5776 9.23506C64.1051 9.23506 64.8818 10.1434 65.1666 11.1023L68.6877 10.0677C68.1181 7.82205 66.0469 5.70252 62.4999 5.70252C58.7199 5.70252 55.7166 8.45286 55.7166 12.3639C55.7166 16.2497 58.7976 19 62.6294 19C66.0728 19 68.1958 16.83 68.7654 14.6348L65.2961 13.6003C65.0113 14.5339 64.1569 15.4675 62.6294 15.4675C60.9983 15.4675 59.6261 14.3572 59.6261 12.3639C59.6261 10.3453 60.9465 9.23506 62.5776 9.23506ZM69.8417 15.1647C69.8417 17.158 71.4728 18.9748 74.2948 18.9748C76.0036 18.9748 77.2463 18.2683 77.9195 17.2085C77.9195 18.0664 78.023 18.5206 78.0489 18.6215H81.5959C81.57 18.4954 81.4406 17.6627 81.4406 16.6786V10.5471C81.4406 7.97344 79.913 5.70252 75.7447 5.70252C71.9647 5.70252 70.2559 8.07437 70.1006 9.86587L73.5181 10.5471C73.5958 9.61355 74.3466 8.70518 75.7188 8.70518C76.9615 8.70518 77.6088 9.33599 77.6088 10.0677C77.6088 10.4967 77.3758 10.8247 76.6767 10.9256L73.6476 11.3798C71.5246 11.6826 69.8417 12.9442 69.8417 15.1647ZM75.2528 16.1992C74.1654 16.1992 73.7252 15.5684 73.7252 14.9124C73.7252 14.0292 74.3466 13.6507 75.1751 13.5246L77.6088 13.1461V13.7012C77.6088 15.6441 76.4178 16.1992 75.2528 16.1992ZM83.1726 15.0637C83.2762 16.4515 84.5707 19 88.6096 19C92.053 19 93.7359 16.9057 93.7359 14.761C93.7359 12.919 92.4414 11.3546 89.7747 10.8247L88.0659 10.4967C87.4963 10.3958 87.0562 10.093 87.0562 9.56308C87.0562 8.90704 87.7034 8.47809 88.4542 8.47809C89.6452 8.47809 90.1889 9.1846 90.2925 10.0173L93.5547 9.43692C93.4252 7.97344 92.1307 5.70252 88.4025 5.70252C85.5286 5.70252 83.4574 7.56972 83.4574 9.86587C83.4574 11.6321 84.5448 13.1461 87.2892 13.7264L88.7649 14.0544C89.7229 14.2563 90.0336 14.6348 90.0336 15.089C90.0336 15.6441 89.5416 16.174 88.5319 16.174C87.1856 16.174 86.5643 15.3413 86.5125 14.4834L83.1726 15.0637ZM100.489 2.42231H96.9675V4.03719C96.9675 5.19788 96.3203 6.08101 94.974 6.08101H94.3267V9.43692H96.6051V14.8114C96.6051 17.3094 98.2362 18.8486 100.903 18.8486C102.146 18.8486 102.793 18.5711 102.948 18.4954V15.3161C102.715 15.3665 102.327 15.4422 101.913 15.4422C101.058 15.4422 100.489 15.1647 100.489 14.1301V9.43692H103V6.08101H100.489V2.42231ZM23.2041 5.80366L20.5975 8.34401L24.3134 11.9655L20.2149 15.9598L22.8215 18.5002L26.92 14.5058L31.0239 18.5054L33.6305 15.9651L23.2041 5.80366ZM30.636 5.80366L33.2426 8.34401L30.636 10.8844L28.0294 8.34401L30.636 5.80366Z" fill="white"/>
</svg>
