<svg width="102" height="24" viewBox="0 0 102 24" fill="none" xmlns="http://www.w3.org/2000/svg">
<path d="M46.3017 5.17578V21.0444H41.451V18.1721C40.9998 19.1011 40.3277 19.8405 39.4346 20.3903C38.5416 20.9401 37.5028 21.215 36.3183 21.215C34.5134 21.215 33.0798 20.6083 32.0176 19.395C30.9553 18.1816 30.4242 16.5132 30.4242 14.3898V5.17578H35.2185V13.7926C35.2185 14.8733 35.4958 15.7122 36.0504 16.3094C36.605 16.9066 37.3524 17.2052 38.2924 17.2052C39.2701 17.2052 40.0409 16.8924 40.605 16.2667C41.169 15.6411 41.451 14.75 41.451 13.5935V5.17578H46.3017ZM54.5401 5.21431V21.0829H49.7176V5.21431H54.5401ZM54.5401 0V3.72451H49.7176V0H54.5401ZM62.6023 0V21.0444H57.7798V0H62.6023ZM71.9088 4.97671C73.1121 4.97671 74.1461 5.25161 75.011 5.80142C75.8758 6.35123 76.5151 7.1001 76.9287 8.04805V5.17578H81.723V21.0444H76.9287V18.1721C76.5151 19.1201 75.8758 19.8689 75.011 20.4187C74.1461 20.9685 73.1121 21.2434 71.9088 21.2434C70.6115 21.2434 69.4506 20.9164 68.4259 20.2623C67.4012 19.6082 66.5928 18.665 66.0006 17.4327C65.4083 16.2004 65.1122 14.7595 65.1122 13.1101C65.1122 11.4417 65.4083 9.99609 66.0006 8.77323C66.5928 7.55037 67.4012 6.61192 68.4259 5.95783C69.4506 5.30375 70.6115 4.97671 71.9088 4.97671ZM73.4599 9.24246C72.4258 9.24246 71.5939 9.58372 70.964 10.2662C70.3342 10.9488 70.0193 11.8967 70.0193 13.1101C70.0193 14.3235 70.3342 15.2714 70.964 15.9539C71.5939 16.6364 72.4258 16.9777 73.4599 16.9777C74.4752 16.9777 75.3071 16.627 75.9557 15.9255C76.6044 15.224 76.9287 14.2855 76.9287 13.1101C76.9287 11.9157 76.6044 10.9725 75.9557 10.2805C75.3071 9.58846 74.4752 9.24246 73.4599 9.24246ZM94.8649 4.97671C96.1622 4.97671 97.3232 5.30375 98.3478 5.95783C99.3725 6.61192 100.181 7.55037 100.773 8.77323C101.365 9.99609 101.662 11.4417 101.662 13.1101C101.662 14.7595 101.365 16.2004 100.773 17.4327C100.181 18.665 99.3725 19.6082 98.3478 20.2623C97.3232 20.9164 96.1622 21.2434 94.8649 21.2434C93.6617 21.2434 92.6276 20.9685 91.7628 20.4187C90.8979 19.8689 90.2681 19.1201 89.8732 18.1721V21.0444H85.0508V0H89.8732V8.04805C90.2681 7.1001 90.8979 6.35123 91.7628 5.80142C92.6276 5.25161 93.6617 4.97671 94.8649 4.97671ZM93.3139 9.24246C92.2986 9.24246 91.4666 9.58846 90.818 10.2805C90.1694 10.9725 89.845 11.9157 89.845 13.1101C89.845 14.2855 90.1694 15.224 90.818 15.9255C91.4666 16.627 92.2986 16.9777 93.3139 16.9777C94.3479 16.9777 95.1799 16.6364 95.8097 15.9539C96.4395 15.2714 96.7544 14.3235 96.7544 13.1101C96.7544 11.8967 96.4395 10.9488 95.8097 10.2662C95.1799 9.58372 94.3479 9.24246 93.3139 9.24246ZM18.8216 12.6249C20.4714 14.7043 20.9602 16.6751 20.163 18.031C19.3508 19.413 17.5761 19.7031 16.2307 19.7031C15.7576 19.7031 15.247 19.6655 14.713 19.5924L14.4513 19.5561L14.3513 19.7964C13.334 22.2402 11.8464 23.6422 10.2689 23.6422C8.69291 23.6422 7.20499 22.2402 6.18725 19.7964L6.08734 19.5561L5.82556 19.5924C5.29127 19.6655 4.78025 19.7031 4.30684 19.7031C2.96108 19.7031 1.18702 19.413 0.374482 18.031C-0.422302 16.6747 0.0661534 14.7043 1.71595 12.6256L1.87888 12.4202L1.71595 12.2151C0.0657953 10.136 -0.42266 8.1656 0.374482 6.80967C1.18595 5.42911 2.96036 5.13929 4.30612 5.13929C4.78169 5.13929 5.29091 5.17587 5.81876 5.24832L6.08053 5.28455L6.18009 5.04397C7.19174 2.60048 8.68217 1.19882 10.2689 1.19882C11.8543 1.19882 13.344 2.60048 14.3564 5.04432L14.4563 5.2849L14.7184 5.24868C15.2466 5.17622 15.7558 5.13964 16.2321 5.13964C17.5775 5.13964 19.3519 5.42911 20.1627 6.80967C20.9602 8.1649 20.471 10.1353 18.8216 12.2151L18.659 12.4198L18.8216 12.6249ZM5.39011 18.7742L5.79011 18.7299L5.67802 18.35C5.41768 17.4665 5.2175 16.5108 5.08321 15.5091L5.06495 15.3719L4.95286 15.2875C4.12922 14.6695 3.38436 14.0237 2.73869 13.3674L2.45901 13.0832L2.22087 13.4011C0.956045 15.0881 0.560697 16.6181 1.13725 17.5987C1.60637 18.3972 2.73261 18.8368 4.30791 18.8368C4.6499 18.8368 5.0141 18.8157 5.39011 18.7742ZM13.8461 15.9692C13.71 15.7718 13.7626 15.502 13.9639 15.3687C15.2484 14.5151 16.3635 13.6002 17.2785 12.6495L17.4991 12.4202L17.2785 12.1912C16.3607 11.2369 15.2405 10.3193 13.9495 9.46314C13.7486 9.32948 13.6956 9.0597 13.8317 8.86203C13.898 8.7653 13.999 8.70129 14.1168 8.67983L14.4545 8.61969L14.3897 8.28871C14.2729 7.69322 14.1293 7.11638 13.9624 6.57366L13.87 6.27257L13.5585 6.34573C13.0038 6.47587 12.4283 6.64365 11.8482 6.84343L11.5234 6.95599L11.6423 7.2736C11.6845 7.38581 11.6788 7.5061 11.6265 7.61197C11.552 7.76216 11.4002 7.85537 11.2304 7.85537C11.1635 7.85537 11.0987 7.84025 11.0374 7.81105C10.8254 7.7101 10.6163 7.61514 10.4086 7.52263L10.2686 7.46037L10.1289 7.52228C9.91943 7.61514 9.70886 7.71151 9.494 7.81387C9.43312 7.84306 9.3683 7.85783 9.30169 7.85783C9.13195 7.85783 8.98011 7.76462 8.90599 7.61514C8.85263 7.50856 8.84797 7.38721 8.89059 7.27395L9.01199 6.95529L8.68504 6.84238C8.1024 6.64154 7.52836 6.47482 6.9783 6.34573L6.66675 6.27257L6.57436 6.57401C6.40856 7.11392 6.2646 7.69076 6.1475 8.28871L6.08232 8.61933L6.41966 8.67983C6.53748 8.70129 6.63918 8.76636 6.70579 8.86309C6.77168 8.95841 6.79531 9.07377 6.77311 9.18703C6.75091 9.30064 6.68502 9.39807 6.58725 9.46279C5.29664 10.3196 4.17649 11.2373 3.25831 12.1912L3.03771 12.4202L3.25831 12.6495C4.17649 13.6034 5.297 14.5218 6.5894 15.3789C6.79066 15.5122 6.84402 15.782 6.70794 15.9794C6.64312 16.074 6.5407 16.1373 6.42002 16.1591L6.08161 16.2189L6.14714 16.5506C6.26496 17.1492 6.40999 17.7264 6.57651 18.2674L6.66926 18.5681L6.98081 18.4949C7.53444 18.3641 8.10849 18.1974 8.68611 17.9983L9.01306 17.8854L8.89166 17.5667C8.84905 17.4538 8.85442 17.3332 8.90742 17.2266C8.98155 17.0764 9.13338 16.9832 9.30313 16.9832C9.36973 16.9832 9.43455 16.998 9.49614 17.0279C9.70958 17.1295 9.91978 17.2259 10.1289 17.318L10.2686 17.38L10.4082 17.318C10.617 17.2259 10.8272 17.1299 11.0407 17.0279C11.1019 16.999 11.1663 16.9843 11.2333 16.9843C11.4031 16.9843 11.5549 17.0775 11.6294 17.2273C11.682 17.3335 11.6874 17.4542 11.6448 17.5667L11.5241 17.885L11.8503 17.9979C12.4283 18.197 13.0024 18.3641 13.5571 18.4949L13.8686 18.5681L13.9614 18.267C14.1297 17.7204 14.2747 17.1387 14.3925 16.5379L14.4563 16.2122L14.125 16.1475C14.0086 16.1253 13.9094 16.0617 13.8461 15.9692ZM7.12298 5.08829L6.96291 5.44916L7.35181 5.54519C8.24994 5.76608 9.18746 6.0756 10.1379 6.46462L10.2686 6.51773L10.3989 6.46462C11.3508 6.07525 12.2883 5.76572 13.185 5.54554L13.5735 5.44987L13.4138 5.08864C12.5497 3.13793 11.4328 2.06373 10.2689 2.06373C9.10366 2.06373 7.98637 3.13793 7.12298 5.08829ZM19.4003 17.5987C19.9765 16.6177 19.5815 15.0881 18.3163 13.4008L18.0774 13.0828L17.7985 13.367C17.1542 14.022 16.4094 14.6688 15.5843 15.2878L15.4722 15.3723L15.4539 15.5094C15.3193 16.5133 15.1195 17.4689 14.8595 18.3504L14.7478 18.7306L15.1478 18.7746C15.5234 18.8161 15.8869 18.8368 16.2289 18.8368C17.8042 18.8368 18.9311 18.3972 19.4003 17.5987ZM13.4102 19.7513L13.5707 19.3905L13.1814 19.2941C12.2861 19.0739 11.3501 18.7647 10.3989 18.3761L10.2686 18.3226L10.1379 18.3761C9.18925 18.764 8.25424 19.0732 7.35718 19.2937L6.9672 19.3898L7.12835 19.751C7.99712 21.7024 9.11226 22.7769 10.2689 22.7769C11.4267 22.7769 12.5422 21.7024 13.4102 19.7513ZM1.13725 7.24195C0.560697 8.22223 0.956045 9.75262 2.22087 11.4399L2.45901 11.7575L2.73869 11.4736C3.38472 10.8173 4.13029 10.1705 4.95358 9.55248L5.06566 9.46807L5.08393 9.33089C5.21929 8.31966 5.41768 7.364 5.67409 6.48959L5.78546 6.10972L5.38545 6.06575C5.01159 6.0246 4.64919 6.00349 4.30827 6.00349C2.73261 6.00349 1.60637 6.44316 1.13725 7.24195ZM15.1513 6.06575L14.7513 6.10972L14.8631 6.48959C15.1195 7.3647 15.3182 8.32071 15.4532 9.33089L15.4715 9.46807L15.5839 9.55248C16.4076 10.1705 17.1524 10.817 17.7985 11.4733L18.0778 11.7575L18.3163 11.4392C19.5811 9.75156 19.9765 8.22188 19.4003 7.24195C18.9311 6.44316 17.8046 6.00349 16.2292 6.00349C15.8883 6.00349 15.5256 6.0246 15.1513 6.06575ZM10.2686 9.6044C11.7257 9.6044 12.911 10.7683 12.911 12.1995C12.911 13.6307 11.7257 14.7949 10.2686 14.7949C8.81145 14.7949 7.62612 13.6307 7.62612 12.1995C7.62612 10.7683 8.81145 9.6044 10.2686 9.6044ZM10.2686 13.878C11.2108 13.878 11.9775 13.1249 11.9775 12.1995C11.9775 11.2741 11.2108 10.521 10.2686 10.521C9.3264 10.521 8.5597 11.2741 8.5597 12.1995C8.5597 13.1249 9.3264 13.878 10.2686 13.878Z" fill="#F8F8F8"/>
</svg>
