<svg width="104" height="27" viewBox="0 0 104 27" fill="none" xmlns="http://www.w3.org/2000/svg">
<path d="M49.268 8.125V21.0935H45.0074V18.9841C44.1553 20.4685 42.7609 21.2497 40.9018 21.3278C39.5074 21.3278 38.3454 20.8591 37.5707 19.9997C36.7186 19.0623 36.3313 17.8904 36.3313 16.4061V8.125H40.5919V15.1561C40.5919 15.8592 40.7468 16.4842 41.1342 16.8748C41.5215 17.2654 41.9863 17.4998 42.6835 17.4998C43.4581 17.4998 44.0004 17.1873 44.4652 16.6404C44.93 16.0936 45.0849 15.3905 45.0849 14.5311V8.125H49.268Z" fill="#F8F8F8"/>
<path d="M56.1623 2.73436C56.5497 3.12498 56.7821 3.67184 56.7821 4.37495C56.7821 4.99994 56.5497 5.5468 56.1623 6.01554C55.775 6.48428 55.2327 6.64052 54.5356 6.64052C53.9158 6.64052 53.3736 6.40616 52.9088 6.01554C52.5215 5.5468 52.2891 4.99994 52.2891 4.37495C52.2891 3.67184 52.5215 3.12498 52.9088 2.73436C53.2961 2.34374 53.8384 2.10938 54.5356 2.10938C55.2327 2.10938 55.775 2.34374 56.1623 2.73436ZM52.5215 8.12487H56.7821V21.0933H52.5215V8.12487Z" fill="#F8F8F8"/>
<path d="M68.3244 21.0934L65.6132 16.1716L64.2962 17.5778V21.0934H60.0356V3.28125H64.2962V12.4998L68.4019 8.12489H73.2048L68.5568 13.1248L73.3597 21.0934H68.3244Z" fill="#F8F8F8"/>
<path d="M78.7822 2.73436C79.1695 3.12498 79.4019 3.67184 79.4019 4.37495C79.4019 4.99994 79.1695 5.5468 78.7822 6.01554C78.3949 6.48428 77.8526 6.64052 77.1554 6.64052C76.5357 6.64052 75.9935 6.40616 75.5287 6.01554C75.1413 5.5468 74.9089 4.99994 74.9089 4.37495C74.9089 3.67184 75.1413 3.12498 75.5287 2.73436C75.916 2.34374 76.4582 2.10938 77.1554 2.10938C77.7752 2.10938 78.3174 2.34374 78.7822 2.73436ZM75.0639 8.12487H79.3245V21.0933H75.0639V8.12487Z" fill="#F8F8F8"/>
<path d="M90.9443 20.4684C90.4795 20.7028 89.9372 20.9372 89.3175 21.0934C88.6978 21.2496 88.078 21.3278 87.4583 21.3278C86.2189 21.3278 85.1344 20.9372 84.3597 20.234C83.585 19.5309 83.1977 18.5153 83.1977 17.1872V11.6405H81.416V8.82805H83.1977V5.23438H87.4583V8.82805H90.7893V11.6405H87.4583V16.5623C87.4583 17.4997 87.8456 17.9685 88.5428 17.9685C89.0076 17.9685 89.5499 17.8122 90.1696 17.4997L90.9443 20.4684Z" fill="#F8F8F8"/>
<path d="M97.4514 10.8591C97.0641 10.8591 96.7542 10.9372 96.5993 11.0934C96.3669 11.2497 96.2895 11.4059 96.2895 11.7184C96.2895 12.0309 96.4444 12.2653 96.8317 12.4215C97.219 12.5778 97.7613 12.8121 98.5359 12.9684C99.4655 13.2028 100.24 13.5153 100.86 13.7496C101.48 13.984 102.022 14.4527 102.409 14.9215C102.874 15.4683 103.106 16.1714 103.106 17.0308C103.106 18.3589 102.564 19.3745 101.557 20.1557C100.55 20.937 99.2331 21.2495 97.6064 21.2495C96.5218 21.2495 95.4373 21.0932 94.4303 20.7807C93.4232 20.4682 92.5711 19.9995 91.719 19.3745L93.0359 16.6402C93.7331 17.187 94.5077 17.5777 95.3599 17.812C96.1345 18.1245 96.9092 18.2027 97.6064 18.2027C97.9937 18.2027 98.381 18.1245 98.6134 17.9683C98.8458 17.812 99.0007 17.6558 99.0007 17.3433C99.0007 17.0308 98.8458 16.7964 98.4585 16.5621C98.0712 16.4058 97.5289 16.1714 96.7542 16.0152C95.8247 15.7808 95.1275 15.4683 94.5077 15.234C93.888 14.9996 93.4232 14.609 92.9584 14.0621C92.4936 13.5153 92.3387 12.8121 92.3387 12.0309C92.3387 10.7028 92.8035 9.68721 93.8106 8.90598C94.8176 8.12475 96.0571 7.81226 97.6064 7.81226C98.5359 7.81226 99.4655 7.9685 100.395 8.20287C101.325 8.43724 102.177 8.82786 102.951 9.2966L101.557 12.109C99.9303 11.3278 98.5359 10.8591 97.4514 10.8591Z" fill="#F8F8F8"/>
<path d="M17.8945 8.04663V17.9683H14.641V16.3277C13.9438 17.4995 12.9367 18.0464 11.5423 18.0464C10.4578 18.0464 9.6057 17.7339 8.98598 17.0308C8.36626 16.3277 8.0564 15.4683 8.0564 14.2965V8.04663H11.2325V13.359C11.2325 13.9059 11.3874 14.3746 11.6198 14.6871C11.9297 14.9996 12.317 15.1558 12.7818 15.1558C13.324 15.1558 13.7888 14.9215 14.0987 14.5309C14.4086 14.1402 14.5635 13.5934 14.5635 12.9684V8.12475H17.8945V8.04663Z" fill="#F8F8F8"/>
<path d="M23.9368 6.79673C25.0213 6.79673 25.8734 5.93737 25.8734 4.84364V1.95308C25.8734 0.859356 25.0213 0 23.9368 0H21.0706C19.9861 0 19.134 0.859356 19.134 1.95308H6.73949C6.73949 0.859356 5.88737 0 4.80285 0H1.93663C0.852119 0 0 0.859356 0 1.95308V4.84364C0 5.93737 0.852119 6.79673 1.93663 6.79673V19.2964C0.852119 19.2964 0 20.1558 0 21.2495V24.2182C0 25.3119 0.852119 26.1713 1.93663 26.1713H4.80285C5.88737 26.1713 6.73949 25.3119 6.73949 24.2182V24.062H19.134V24.2182C19.134 25.3119 19.9861 26.1713 21.0706 26.1713H23.9368C25.0213 26.1713 25.8734 25.3119 25.8734 24.2182V21.3277C25.8734 20.2339 25.0213 19.3746 23.9368 19.3746H23.7819V6.87485H23.9368V6.79673ZM20.3734 1.95308C20.3734 1.56247 20.6833 1.24997 21.0706 1.24997H23.9368C24.3241 1.24997 24.634 1.56247 24.634 1.95308V4.84364C24.634 5.23426 24.3241 5.54675 23.9368 5.54675H23.7819H21.0706C20.6833 5.54675 20.3734 5.23426 20.3734 4.84364V1.95308ZM1.23945 4.84364V1.95308C1.23945 1.56247 1.54931 1.24997 1.93663 1.24997H4.80285C5.19018 1.24997 5.50004 1.56247 5.50004 1.95308V4.84364C5.50004 5.23426 5.19018 5.54675 4.80285 5.54675H1.93663C1.54931 5.62488 1.23945 5.31238 1.23945 4.84364ZM5.57751 24.2182C5.57751 24.6088 5.26765 24.9213 4.88032 24.9213H1.93663C1.54931 24.9213 1.23945 24.6088 1.23945 24.2182V21.3277C1.23945 20.937 1.54931 20.6245 1.93663 20.6245H4.80285C5.19018 20.6245 5.50004 20.937 5.50004 21.3277V24.062V24.2182H5.57751ZM23.9368 20.5464C24.3241 20.5464 24.634 20.8589 24.634 21.2495V24.2182C24.634 24.6088 24.3241 24.9213 23.9368 24.9213H21.0706C20.6833 24.9213 20.3734 24.6088 20.3734 24.2182V24.062V21.3277C20.3734 20.937 20.6833 20.6245 21.0706 20.6245H23.7819H23.9368V20.5464ZM22.6199 19.3746H21.1481H21.0706C20.0635 19.3746 19.2889 20.2339 19.2889 21.1714V21.2495V22.812H6.89442V21.2495V21.1714C6.89442 20.1558 6.0423 19.3746 5.11272 19.3746H4.80285H3.09862V6.87485H4.80285H4.88032C5.88737 6.87485 6.66202 6.01549 6.66202 5.07801V4.99989V3.3593H19.0565V4.99989V5.07801C19.0565 6.09362 19.9086 6.87485 20.8382 6.87485H20.9157H22.3875V19.3746H22.6199Z" fill="#F8F8F8"/>
</svg>
